<svg width="24" height="24" viewBox="0 0 24 24" fill="none" xmlns="http://www.w3.org/2000/svg">
<path d="M12 1.99622C16.0499 1.99622 19.3567 5.19097 19.4958 9.24528L19.5 9.49622V13.5932L20.88 16.7492C20.949 16.9071 20.9847 17.0776 20.9847 17.25C20.9847 17.9404 20.425 18.5 19.7347 18.5L15 18.5015C15 20.1583 13.6568 21.5015 12 21.5015C10.4023 21.5015 9.09633 20.2526 9.00508 18.6778L8.99954 18.4992L4.27485 18.5C4.10351 18.5 3.93401 18.4648 3.77685 18.3965C3.14365 18.1215 2.8533 17.3852 3.12834 16.752L4.49999 13.5941V9.49612C4.50059 5.34132 7.85208 1.99622 12 1.99622ZM13.4995 18.4992L10.5 18.5015C10.5 19.3299 11.1716 20.0015 12 20.0015C12.7797 20.0015 13.4204 19.4066 13.4931 18.646L13.4995 18.4992ZM12 3.49622C8.67983 3.49622 6.00047 6.17048 5.99999 9.49622V13.9059L4.65601 17H19.3525L18 13.9068L18.0001 9.50908L17.9964 9.28388C17.8853 6.0504 15.2416 3.49622 12 3.49622Z" fill="currentColor"/>
</svg>
