<svg viewBox="0 0 24 24" fill="none" xmlns="http://www.w3.org/2000/svg"><path d="M2.22 9.22l4.494-4.495a.75.75 0 01.976-.073l.085.072 4.504 4.495a.75.75 0 01-.975 1.134l-.084-.072-3.223-3.217V18.76a.75.75 0 01-.648.743l-.101.007a.75.75 0 01-.743-.648l-.007-.102-.001-11.698L3.28 10.28a.75.75 0 01-.976.073l-.084-.073a.75.75 0 01-.073-.976l.073-.084 4.494-4.495L2.22 9.22zm14.43-4.718l.1-.007a.75.75 0 01.744.648l.007.102-.001 11.696 3.22-3.221a.75.75 0 01.976-.073l.084.072a.75.75 0 01.073.977l-.072.084-4.497 4.5a.75.75 0 01-.976.073l-.084-.072-4.504-4.5a.75.75 0 01.976-1.134l.084.072L16 16.937V5.245a.75.75 0 01.65-.743l.1-.007-.1.007z" fill="currentColor"/></svg>