<svg viewBox="0 0 24 24" xmlns="http://www.w3.org/2000/svg"><title>ic_fluent_calendar_24_regular</title><path d="M17.75 3A3.25 3.25 0 0121 6.25v11.5A3.25 3.25 0 0117.75 21H6.25A3.25 3.25 0 013 17.75V6.25A3.25 3.25 0 016.25 3h11.5zm1.75 5.5h-15v9.25c0 .966.784 1.75 1.75 1.75h11.5a1.75 1.75 0 001.75-1.75V8.5zm-11.75 6a1.25 1.25 0 110 2.5 1.25 1.25 0 010-2.5zm4.25 0a1.25 1.25 0 110 2.5 1.25 1.25 0 010-2.5zm-4.25-4a1.25 1.25 0 110 2.5 1.25 1.25 0 010-2.5zm4.25 0a1.25 1.25 0 110 2.5 1.25 1.25 0 010-2.5zm4.25 0a1.25 1.25 0 110 2.5 1.25 1.25 0 010-2.5zm1.5-6H6.25A1.75 1.75 0 004.5 6.25V7h15v-.75a1.75 1.75 0 00-1.75-1.75z" fill="currentColor" fill-rule="nonzero"/></svg>
