<svg viewBox="0 0 24 24" fill="none" xmlns="http://www.w3.org/2000/svg"><path d="M6.75 4H14a.75.75 0 01.102 1.493L14 5.5H6.75a1.25 1.25 0 00-1.244 1.122L5.5 6.75v10.5c0 .647.492 1.18 1.122 1.244l.128.006h10.5a1.25 1.25 0 001.244-1.122l.006-.128V10a.75.75 0 011.493-.102L20 10v7.25a2.75 2.75 0 01-2.582 2.745L17.25 20H6.75a2.75 2.75 0 01-2.745-2.582L4 17.25V6.75a2.75 2.75 0 012.582-2.745L6.75 4H14 6.75zm14.127-.877a.75.75 0 010 1.061l-8.662 8.662-1.591.53.53-1.59 8.662-8.663a.75.75 0 011.06 0z" fill="currentColor"/></svg>
