<svg viewBox="0 0 24 24" fill="none" xmlns="http://www.w3.org/2000/svg"><path d="M21.78 2.22a.75.75 0 01.073.976l-.073.084-4.034 4.035a9.986 9.986 0 013.955 5.75.75.75 0 11-1.455.364 8.49 8.49 0 00-3.58-5.034l-1.81 1.81A4 4 0 019.2 15.86L3.28 21.78a.75.75 0 01-1.133-.977l.073-.084 6.113-6.114-.001-.002 1.2-1.198 2.87-2.87H12.4l2.881-2.878-.001-.002 1.133-1.13L20.72 2.22a.75.75 0 011.06 0zm-7.984 9.045l-3.535 3.536a2.5 2.5 0 003.535-3.535zM12 5.5c1 0 1.97.148 2.889.425l-1.237 1.236a8.503 8.503 0 00-9.899 6.272.75.75 0 01-1.455-.363A10.003 10.003 0 0112 5.5zm-.195 3.51l-3.801 3.8a4.003 4.003 0 013.801-3.8z" fill="currentColor"/></svg>