<svg viewBox="0 0 24 24" fill="none" xmlns="http://www.w3.org/2000/svg"><path d="M8.207 4c.46 0 .908.141 1.284.402l.156.12L12.022 6.5h7.728a2.25 2.25 0 012.229 1.938l.016.158.005.154v9a2.25 2.25 0 01-2.096 2.245L19.75 20H4.25a2.25 2.25 0 01-2.245-2.096L2 17.75V6.25a2.25 2.25 0 012.096-2.245L4.25 4h3.957zm1.44 5.979a2.25 2.25 0 01-1.244.512l-.196.009-4.707-.001v7.251c0 .38.282.694.648.743l.102.007h15.5a.75.75 0 00.743-.648l.007-.102v-9a.75.75 0 00-.648-.743L19.75 8h-7.729L9.647 9.979zM8.207 5.5H4.25a.75.75 0 00-.743.648L3.5 6.25v2.749L8.207 9a.75.75 0 00.395-.113l.085-.06 1.891-1.578-1.89-1.575a.75.75 0 00-.377-.167L8.207 5.5z" fill="currentColor"/></svg>