<svg viewBox="0 0 24 24" fill="none" xmlns="http://www.w3.org/2000/svg"><path d="M6.25 16.495a.75.75 0 01.743.648l.007.102v1.005c0 .38.282.694.648.743L7.75 19h.5a.75.75 0 01.102 1.493l-.102.007h-.5a2.25 2.25 0 01-2.245-2.096L5.5 18.25v-1.005a.75.75 0 01.75-.75zm15 0a.75.75 0 01.75.75v1.005a2.25 2.25 0 01-2.25 2.25h-1.003a.75.75 0 010-1.5h1.003a.75.75 0 00.75-.75v-1.005a.75.75 0 01.75-.75zM14.753 19h1.495a.75.75 0 01.102 1.493l-.102.007h-1.495a.75.75 0 01-.102-1.493l.102-.007zm-4.002 0h1.495a.75.75 0 01.102 1.493l-.102.007h-1.495a.75.75 0 01-.102-1.493L10.75 19zM16.5 3a2.25 2.25 0 012.25 2.25v.25h-1.5v-.25a.75.75 0 00-.75-.75H4.25a.75.75 0 00-.75.75v9.5c0 .414.336.75.75.75h.25V17h-.25A2.25 2.25 0 012 14.75v-9.5A2.25 2.25 0 014.25 3H16.5zM6.25 11.5a.75.75 0 01.743.649l.007.102v2.494a.75.75 0 01-1.493.102l-.007-.102v-2.494a.75.75 0 01.75-.75zm15 0a.75.75 0 01.743.649l.007.102v2.494a.75.75 0 01-1.493.102l-.007-.102v-2.494a.75.75 0 01.75-.75zm-1.996-5h.496a2.25 2.25 0 012.245 2.096L22 8.75v1.004a.75.75 0 01-1.493.101l-.007-.101V8.75a.75.75 0 00-.648-.743L19.75 8h-.496a.75.75 0 01-.102-1.493l.102-.007zm-10.501 0a.75.75 0 010 1.5H7.75a.75.75 0 00-.75.75v1.004a.75.75 0 01-1.5 0V8.75A2.25 2.25 0 017.75 6.5h1.003zm6.496 0h1.503a.75.75 0 01.102 1.493L16.752 8h-1.503a.75.75 0 01-.102-1.493l.102-.007zm-3.999 0h1.495a.75.75 0 01.102 1.493L12.745 8H11.25a.75.75 0 01-.102-1.493l.102-.007z" fill="currentColor"/></svg>