<svg viewBox="0 0 24 24" fill="none" xmlns="http://www.w3.org/2000/svg"><path d="M11.536 2.91a.75.75 0 01.928 0l7.107 5.6A3.75 3.75 0 0121 11.456v9.294c0 .69-.56 1.25-1.25 1.25h-5c-.69 0-1.25-.56-1.25-1.25v-5a.25.25 0 00-.25-.25h-2.5a.25.25 0 00-.25.25v5c0 .69-.56 1.25-1.25 1.25h-5C3.56 22 3 21.44 3 20.75v-9.294A3.75 3.75 0 014.43 8.51l7.106-5.6zM12 4.456L5.358 9.688a2.25 2.25 0 00-.858 1.768V20.5H9v-4.75c0-.966.784-1.75 1.75-1.75h2.5c.966 0 1.75.784 1.75 1.75v4.75h4.5v-9.044c0-.69-.316-1.341-.858-1.768L12 4.455z" fill="currentColor"/></svg>