<svg viewBox="0 0 24 24" xmlns="http://www.w3.org/2000/svg"><title>ic_fluent_image_add_24_regular</title><path d="M18.75 4A3.25 3.25 0 0122 7.25v11.5A3.25 3.25 0 0118.75 22H7.25A3.25 3.25 0 014 18.75v-6.248c.474.198.977.34 1.5.422v5.826c0 .208.036.408.103.594l5.823-5.701a2.25 2.25 0 013.02-.116l.128.116 5.822 5.702c.067-.186.104-.386.104-.595V7.25a1.75 1.75 0 00-1.75-1.75h-5.826a6.455 6.455 0 00-.422-1.5h6.248zm-6.191 10.644l-.084.07-5.807 5.687c.182.064.378.099.582.099h11.5c.203 0 .399-.035.58-.099l-5.805-5.686a.75.75 0 00-.966-.071zM16.252 7.5a2.252 2.252 0 110 4.504 2.252 2.252 0 010-4.504zM6.5 1a5.5 5.5 0 110 11 5.5 5.5 0 010-11zm9.752 8a.752.752 0 100 1.504.752.752 0 000-1.504zM6.5 3l-.09.007a.5.5 0 00-.402.402L6 3.5V6L3.498 6l-.09.008a.5.5 0 00-.402.402l-.008.09.008.09a.5.5 0 00.402.402l.09.008H6v2.503l.008.09a.5.5 0 00.402.402l.09.008.09-.008a.5.5 0 00.402-.402l.008-.09V7L9.505 7l.09-.008a.5.5 0 00.402-.402l.008-.09-.008-.09a.5.5 0 00-.403-.402L9.504 6H7V3.5l-.008-.09a.5.5 0 00-.402-.403L6.5 3z" fill="currentColor" fill-rule="nonzero"/></svg>