<svg viewBox="0 0 24 24" xmlns="http://www.w3.org/2000/svg"><title>ic_fluent_image_24_regular</title><path d="M17.75 3A3.25 3.25 0 0121 6.25v11.5A3.25 3.25 0 0117.75 21H6.25A3.25 3.25 0 013 17.75V6.25A3.25 3.25 0 016.25 3h11.5zm.58 16.401l-5.805-5.686a.75.75 0 00-.966-.071l-.084.07-5.807 5.687c.182.064.378.099.582.099h11.5c.203 0 .399-.035.58-.099l-5.805-5.686L18.33 19.4zM17.75 4.5H6.25A1.75 1.75 0 004.5 6.25v11.5c0 .208.036.408.103.594l5.823-5.701a2.25 2.25 0 013.02-.116l.128.116 5.822 5.702c.067-.186.104-.386.104-.595V6.25a1.75 1.75 0 00-1.75-1.75zm-2.498 2a2.252 2.252 0 110 4.504 2.252 2.252 0 010-4.504zm0 1.5a.752.752 0 100 1.504.752.752 0 000-1.504z" fill="currentColor" fill-rule="nonzero"/></svg>