<svg width="24" height="24" viewBox="0 0 24 24" fill="none" xmlns="http://www.w3.org/2000/svg">
<path d="M11.9996 1.99897C17.5233 1.99897 22.0011 6.47681 22.0011 12.0005C22.0011 17.5242 17.5233 22.0021 11.9996 22.0021C6.47589 22.0021 1.99805 17.5242 1.99805 12.0005C1.99805 6.47681 6.47589 1.99897 11.9996 1.99897ZM11.9996 3.49897C7.30432 3.49897 3.49805 7.30524 3.49805 12.0005C3.49805 16.6958 7.30432 20.5021 11.9996 20.5021C16.6949 20.5021 20.5011 16.6958 20.5011 12.0005C20.5011 7.30524 16.6949 3.49897 11.9996 3.49897ZM11.996 10.4995C12.3757 10.4993 12.6896 10.7812 12.7395 11.1473L12.7464 11.2491L12.75 16.7507C12.7503 17.1649 12.4147 17.5009 12.0005 17.5011C11.6208 17.5014 11.3069 17.2194 11.257 16.8534L11.25 16.7516L11.2464 11.25C11.2462 10.8358 11.5817 10.4998 11.996 10.4995ZM12 7.00178C12.5516 7.00178 12.9987 7.4489 12.9987 8.00045C12.9987 8.55199 12.5516 8.99911 12 8.99911C11.4485 8.99911 11.0014 8.55199 11.0014 8.00045C11.0014 7.4489 11.4485 7.00178 12 7.00178Z" fill="currentColor"/>
</svg>
