<svg viewBox="0 0 24 24" xmlns="http://www.w3.org/2000/svg"><title>ic_fluent_note_24_regular</title><path d="M17.75 3A3.25 3.25 0 0121 6.25v6.879a2.25 2.25 0 01-.659 1.59l-5.621 5.622a2.25 2.25 0 01-1.591.659H6.25A3.25 3.25 0 013 17.75V6.25A3.25 3.25 0 016.25 3h11.5zm0 1.5H6.25A1.75 1.75 0 004.5 6.25v11.5c0 .966.784 1.75 1.75 1.75H13v-3.25a3.25 3.25 0 013.066-3.245L16.25 13h3.25V6.25a1.75 1.75 0 00-1.75-1.75zm.689 10H16.25a1.75 1.75 0 00-1.744 1.606l-.006.144v2.189l3.939-3.939z" fill="currentColor" fill-rule="nonzero"/></svg>
