<svg viewBox="0 0 24 24" fill="none" xmlns="http://www.w3.org/2000/svg"><path d="M17.5 12a5.5 5.5 0 110 11 5.5 5.5 0 010-11zm-5.477 2a6.47 6.47 0 00-.709 1.5h-7.06a.75.75 0 00-.75.75v.907c0 .656.286 1.279.783 1.706 1.258 1.082 3.154 1.638 5.713 1.638.6 0 1.162-.03 1.688-.09.25.5.563.963.93 1.38-.803.14-1.676.21-2.618.21-2.89 0-5.128-.657-6.69-2a3.75 3.75 0 01-1.306-2.844v-.907A2.25 2.25 0 014.254 14h7.769zm4.697.589l-.07.057-2.515 2.517-.04.05-.036.058-.032.078-.011.043-.012.086.004.088.02.085.031.078.025.042.05.066 2.516 2.517a.5.5 0 00.765-.638l-.058-.07L15.711 18h4.79a.5.5 0 00.491-.41L21 17.5a.5.5 0 00-.41-.492L20.5 17h-4.789l1.646-1.646a.5.5 0 00.058-.638l-.058-.07a.5.5 0 00-.637-.057zM10 2.005a5 5 0 110 10 5 5 0 010-10zm0 1.5a3.5 3.5 0 100 7 3.5 3.5 0 000-7z" fill="currentColor"/></svg>