<svg viewBox="0 0 24 24" fill="none" xmlns="http://www.w3.org/2000/svg"><path d="M17.755 14a2.249 2.249 0 012.248 2.249v.575c0 .894-.32 1.76-.9 2.439C17.532 21.096 15.145 22 12 22s-5.532-.905-7.098-2.74a3.75 3.75 0 01-.898-2.434v-.578a2.249 2.249 0 012.249-2.25h11.502zm0 1.5H6.252a.749.749 0 00-.75.749v.578c0 .535.192 1.053.54 1.46 1.253 1.468 3.22 2.214 5.957 2.214 2.739 0 4.706-.746 5.963-2.214a2.25 2.25 0 00.54-1.463v-.575a.749.749 0 00-.748-.75zM12 2.005a5 5 0 110 10 5 5 0 010-10zm0 1.5a3.5 3.5 0 100 7 3.5 3.5 0 000-7z" fill="currentColor"/></svg>