<svg viewBox="0 0 24 24" fill="none" xmlns="http://www.w3.org/2000/svg"><path d="M12.013 2.25c.734.009 1.465.093 2.182.253a.75.75 0 01.582.649l.17 1.527a1.384 1.384 0 001.927 1.116l1.4-.615a.75.75 0 01.85.174 9.793 9.793 0 012.205 3.792.75.75 0 01-.272.826l-1.241.915a1.38 1.38 0 000 2.226l1.243.915a.75.75 0 01.272.826 9.798 9.798 0 01-2.204 3.792.75.75 0 01-.848.175l-1.407-.616a1.38 1.38 0 00-1.926 1.113l-.17 1.526a.75.75 0 01-.571.647 9.516 9.516 0 01-4.406 0 .75.75 0 01-.572-.646l-.169-1.525a1.382 1.382 0 00-1.925-1.11l-1.406.616a.75.75 0 01-.85-.175 9.798 9.798 0 01-2.203-3.796.75.75 0 01.272-.826l1.243-.916a1.381 1.381 0 000-2.226l-1.243-.914a.75.75 0 01-.272-.826A9.793 9.793 0 014.88 5.355a.75.75 0 01.85-.174l1.4.615a1.387 1.387 0 001.93-1.118l.17-1.526a.75.75 0 01.583-.649c.717-.16 1.449-.244 2.201-.253zm0 1.5a9.136 9.136 0 00-1.354.117l-.11.977A2.886 2.886 0 016.527 7.17l-.899-.394A8.293 8.293 0 004.28 9.092l.798.587a2.881 2.881 0 01.001 4.643l-.799.588c.32.842.776 1.626 1.348 2.322l.905-.397a2.882 2.882 0 014.017 2.318l.109.984c.89.15 1.798.15 2.688 0l.109-.984a2.88 2.88 0 014.019-2.322l.904.396a8.299 8.299 0 001.348-2.318l-.798-.588a2.881 2.881 0 01-.001-4.642l.797-.588a8.293 8.293 0 00-1.348-2.317l-.897.393a2.884 2.884 0 01-4.023-2.324l-.109-.976a8.991 8.991 0 00-1.334-.117zm-.012 4.5a3.75 3.75 0 110 7.5 3.75 3.75 0 010-7.5zm0 1.5a2.25 2.25 0 100 4.5 2.25 2.25 0 000-4.5z" fill="currentColor"/></svg>