<svg viewBox="0 0 24 24" fill="none" xmlns="http://www.w3.org/2000/svg"><path d="M12 4.354V5h1.745a.75.75 0 01.743.647l.007.102.007 4.251h-1.5l-.006-3.5H12v4.505l1.002-.001.001-.004h1.501l-.001.004h4.939L17.72 9.28a.75.75 0 01-.073-.976l.073-.084a.75.75 0 01.976-.073l.084.073 2.997 2.997a.75.75 0 01.073.976l-.073.084-2.996 3.004a.75.75 0 01-1.134-.975l.072-.085 1.713-1.717h-7.431L12 17.002h1.014l-.007-3.501h1.501l.007 4.25a.75.75 0 01-.648.745l-.102.006H12v.749a.75.75 0 01-.88.739l-8.5-1.502A.75.75 0 012 17.75V5.75a.75.75 0 01.628-.74l8.5-1.396a.75.75 0 01.872.74zm-1.5.883l-7 1.15V17.12l7 1.236V5.237zM8.502 11.5a1.002 1.002 0 110 2.004 1.002 1.002 0 010-2.004z" fill="currentColor"/></svg>