<svg viewBox="0 0 24 24" fill="none" xmlns="http://www.w3.org/2000/svg"><path d="M8.643 8.208l2.683-5.448a.75.75 0 011.346 0l2.683 5.448 6.011.869a.75.75 0 01.416 1.279l-4.347 4.236 1.026 5.986a.75.75 0 01-1.088.79l-5.374-2.83-5.373 2.83a.75.75 0 01-1.089-.79l1.031-5.986-4.352-4.236a.75.75 0 01.416-1.28l6.01-.868zm3.356-3.42L9.814 9.225a.75.75 0 01-.566.411l-4.895.707 3.545 3.45a.75.75 0 01.216.665l-.84 4.873 4.376-2.305a.75.75 0 01.699 0l4.377 2.306-.836-4.875a.75.75 0 01.216-.664l3.54-3.45-4.896-.707a.75.75 0 01-.566-.41L12 4.787z" fill="currentColor"/></svg>