<svg viewBox="0 0 24 24" xmlns="http://www.w3.org/2000/svg"><path d="M12 18.003a.75.75 0 00.743-.647l.007-.102V4.56l2.22 2.216a.75.75 0 00.976.073l.084-.073a.75.75 0 00.073-.975l-.073-.084-3.5-3.498a.75.75 0 00-.976-.072l-.084.072-3.5 3.498a.749.749 0 00.976 1.132l.084-.073 2.22-2.216v12.694c0 .414.336.75.75.75zM12 22c2.761 0 5-2.237 5-4.996a4.998 4.998 0 00-3.25-4.68v1.651A3.499 3.499 0 0112 20.501a3.499 3.499 0 01-1.75-6.526v-1.652A4.998 4.998 0 007 17.004 4.998 4.998 0 0012 22z" fill="currentColor" fill-rule="nonzero"/></svg>