<svg viewBox="0 0 24 24" xmlns="http://www.w3.org/2000/svg"><path d="M5.997 12c0 .38.282.693.647.743l.102.007H19.44l-2.216 2.22a.75.75 0 00-.073.976l.073.084a.75.75 0 00.975.073l.084-.073 3.498-3.5a.75.75 0 00.072-.976l-.072-.084-3.498-3.5a.749.749 0 00-1.132.976l.073.084 2.216 2.22H6.746a.75.75 0 00-.75.75zM2 12c0 2.761 2.237 5 4.996 5a4.998 4.998 0 004.68-3.25h-1.651A3.499 3.499 0 013.499 12a3.499 3.499 0 016.526-1.75h1.652A4.998 4.998 0 006.996 7 4.998 4.998 0 002 12z" fill="currentColor" fill-rule="nonzero"/></svg>