<svg viewBox="0 0 24 24" fill="none" xmlns="http://www.w3.org/2000/svg"><path d="M16.5 17.985c0 2.442-1.14 4.198-3.007 4.198-.975 0-1.341-.542-1.69-1.795l-.207-.772c-.101-.359-.277-.97-.527-1.831a.251.251 0 00-.03-.065l-2.866-4.486a5.884 5.884 0 00-2.855-2.326l-.473-.182A2.75 2.75 0 013.13 7.635l.404-2.086A3.25 3.25 0 015.95 3.01l7.628-1.87a4.75 4.75 0 015.733 3.44l1.415 5.55a3.25 3.25 0 01-3.15 4.052h-1.822c.496 1.633.746 2.893.746 3.802zM4.6 7.92a1.25 1.25 0 00.78 1.406l.474.18a7.385 7.385 0 013.582 2.92l2.867 4.486c.09.141.159.294.205.455l.552 1.92.212.791c.14.488.21.605.22.605.868 0 1.507-.983 1.507-2.698 0-.885-.326-2.336-.984-4.315a.75.75 0 01.711-.987h2.85a1.751 1.751 0 001.696-2.182l-1.415-5.55a3.25 3.25 0 00-3.923-2.353l-7.628 1.87a1.75 1.75 0 00-1.301 1.366L4.6 7.92z" fill="currentColor"/></svg>