<svg viewBox="0 0 24 24" fill="none" xmlns="http://www.w3.org/2000/svg"><path d="M16.5 5.202c0-2.442-1.14-4.198-3.007-4.198-1.026 0-1.378.601-1.746 2-.075.288-.112.429-.151.567-.101.359-.277.97-.527 1.831a.25.25 0 01-.03.065L8.174 9.953a5.885 5.885 0 01-2.855 2.327l-.473.18a2.75 2.75 0 00-1.716 3.092l.404 2.087a3.25 3.25 0 002.417 2.537l7.628 1.87a4.75 4.75 0 005.733-3.44l1.415-5.55a3.25 3.25 0 00-3.15-4.052h-1.822c.496-1.633.746-2.893.746-3.802zM4.6 15.267a1.25 1.25 0 01.78-1.405l.474-.182a7.384 7.384 0 003.582-2.92l2.867-4.485c.09-.14.159-.294.205-.455.252-.865.428-1.479.53-1.842.044-.154.085-.31.159-.593.19-.722.283-.881.295-.881.868 0 1.507.984 1.507 2.698 0 .885-.326 2.336-.984 4.315a.75.75 0 00.711.987h2.85a1.75 1.75 0 011.696 2.182l-1.415 5.55a3.25 3.25 0 01-3.923 2.353l-7.628-1.87a1.75 1.75 0 01-1.301-1.366L4.6 15.267z" fill="currentColor"/></svg>