<svg viewBox="0 0 24 24" fill="none" xmlns="http://www.w3.org/2000/svg"><path d="M10.91 2.782a2.25 2.25 0 012.975.74l.083.138 7.759 14.009a2.25 2.25 0 01-1.815 3.334l-.154.006H4.243A2.25 2.25 0 012.2 17.812l.073-.143L10.031 3.66a2.25 2.25 0 01.878-.878zm9.504 15.613L12.655 4.387a.75.75 0 00-1.255-.088l-.057.088-7.757 14.008a.75.75 0 00.562 1.108l.095.006h15.515a.75.75 0 00.697-1.028l-.04-.086-7.76-14.008 7.76 14.008zM12 16.002a.999.999 0 110 1.997.999.999 0 010-1.997zM11.996 8.5a.75.75 0 01.744.647l.007.102.003 4.502a.75.75 0 01-1.493.103l-.007-.102-.003-4.502a.75.75 0 01.75-.75z" fill="currentColor"/></svg>