<svg id="bc7646eb-73ea-4804-9afd-b450058851dd" data-name="Layer 1" xmlns="http://www.w3.org/2000/svg" width="797.49606" height="741.61701" viewBox="0 0 797.49606 741.61701"><title>online_posts</title><ellipse cx="398.74803" cy="723.61701" rx="398.74803" ry="18" fill="#e6e6e6"/><path d="M629.252,252.13875h-3.99878V142.59342A63.40186,63.40186,0,0,0,561.85114,79.1915H329.7647a63.40185,63.40185,0,0,0-63.40205,63.40192V743.5676a63.40185,63.40185,0,0,0,63.40205,63.40193H561.85114a63.40186,63.40186,0,0,0,63.40205-63.40193V330.115H629.252Z" transform="translate(-201.25197 -79.1915)" fill="#3f3d56"/><path d="M564.40946,95.68648h-30.295A22.49484,22.49484,0,0,1,513.28733,126.677H380.32787a22.49486,22.49486,0,0,1-20.82715-30.99056H331.20516a47.3478,47.3478,0,0,0-47.34787,47.34774V743.12674a47.34781,47.34781,0,0,0,47.34787,47.34781h233.2043a47.34781,47.34781,0,0,0,47.34786-47.34781V143.03422A47.3478,47.3478,0,0,0,564.40946,95.68648Z" transform="translate(-201.25197 -79.1915)" fill="#fff"/><rect x="196.31772" y="177.70431" width="82.65983" height="7.67616" fill="#3f83f8"/><rect x="196.31772" y="204.25859" width="144.06914" height="7.67616" fill="#e6e6e6"/><rect x="196.31772" y="230.81286" width="143.92807" height="7.67616" fill="#e6e6e6"/><rect x="117.77811" y="177.81829" width="61.40931" height="61.40931" fill="#3f83f8"/><rect x="196.31772" y="338.90375" width="82.65983" height="7.67616" fill="#3f83f8"/><rect x="196.31772" y="365.45803" width="144.06914" height="7.67616" fill="#e6e6e6"/><rect x="196.31772" y="392.0123" width="143.92807" height="7.67616" fill="#e6e6e6"/><rect x="117.77811" y="339.01773" width="61.40931" height="61.40931" fill="#3f83f8"/><rect x="196.31772" y="500.10319" width="82.65983" height="7.67616" fill="#3f83f8"/><rect x="196.31772" y="526.65747" width="144.06914" height="7.67616" fill="#e6e6e6"/><rect x="196.31772" y="553.21174" width="143.92807" height="7.67616" fill="#e6e6e6"/><rect x="117.77811" y="500.21717" width="61.40931" height="61.40931" fill="#3f83f8"/><circle cx="658.98744" cy="300.24165" r="30.44947" fill="#2f2e41"/><path d="M876.27123,399.7047s-.45843,18.79556,1.37529,19.254S852.433,426.752,852.433,426.752l-2.75057-25.672Z" transform="translate(-201.25197 -79.1915)" fill="#ffb8b8"/><path d="M662.64363,560.15462s-20.17085,0-20.62928-2.29214-4.58428,18.79556-4.58428,18.79556l8.25171,2.75057s15.58656-6.87643,16.96185-6.87643S662.64363,560.15462,662.64363,560.15462Z" transform="translate(-201.25197 -79.1915)" fill="#ffb8b8"/><path d="M640.63907,568.40633s3.66742-12.37757,8.25171-12.836c0,0-15.58657-10.08542-16.045-13.29442s-5.95957-11.46071-8.25171-8.71014-2.29215,46.30127,1.83371,50.88555,22.463-6.44355,22.463-6.44355S637.43007,572.99061,640.63907,568.40633Z" transform="translate(-201.25197 -79.1915)" fill="#2f2e41"/><polygon points="688.314 664.793 691.981 684.505 675.019 687.256 675.019 664.793 688.314 664.793" fill="#ffb8b8"/><path d="M889.56565,761.40466s2.75057-8.71014,4.58429-7.33486,4.58428,10.08543,4.12585,12.37757-3.66743,20.17084-2.29214,23.37984-6.87643,19.71242-17.42028,18.33714-9.627-10.54386-9.627-10.54386l3.66742-14.21127,1.37529-22.463S885.89823,759.11251,889.56565,761.40466Z" transform="translate(-201.25197 -79.1915)" fill="#2f2e41"/><circle cx="669.6391" cy="268.19383" r="12.59978" fill="#2f2e41"/><path d="M887.69078,340.56045a12.60108,12.60108,0,0,0-11.28731-12.53166,12.73909,12.73909,0,0,1,1.31248-.06812,12.59978,12.59978,0,0,1,0,25.19956,12.7419,12.7419,0,0,1-1.31248-.06812A12.60108,12.60108,0,0,0,887.69078,340.56045Z" transform="translate(-201.25197 -79.1915)" fill="#2f2e41"/><circle cx="658.97427" cy="314.09521" r="19.25399" fill="#ffb8b8"/><path d="M898.27579,527.14778s-.91686,22.92141-4.58428,34.84055-16.88939,96.80422-14.13882,103.22222,16.88939,77.39854,13.68039,81.5244-18.33713,2.75057-18.33713,2.75057l-20.55682-86.10869s4.0534-94.9705-29.8703-97.26264-89.39353-3.66743-89.39353-3.66743-35.75741,10.54385-51.8024,10.08542-25.21356,4.12586-25.21356,4.12586l-2.75057-18.79556,71.0564-15.58657s65.09682-22.463,100.85423-16.50342S898.27579,527.14778,898.27579,527.14778Z" transform="translate(-201.25197 -79.1915)" fill="#2f2e41"/><path d="M872.6038,412.99912s5.50114-3.209,6.87643,0,11.00228,5.95957,14.66971,3.209,12.836.91686,12.836.91686l10.08542,29.79784s-5.04271,25.672-9.627,39.88326-6.418,43.5507-4.58429,46.30127-36.67426,13.75285-55.46982,6.87642-22.92142-14.66971-22.92142-14.66971,20.62927-29.33941,13.75285-43.09226-1.37529-29.33941-1.37529-29.33941l-2.75057-15.58657,15.58657-8.71013s.91685-8.25171,4.58428-8.25171S872.6038,412.99912,872.6038,412.99912Z" transform="translate(-201.25197 -79.1915)" fill="#d0cde1"/><path d="M840.97225,437.75425h-6.87643a15.38961,15.38961,0,0,0-4.58428,14.21128c1.83371,8.71014,10.10364,37.58688,10.10364,37.58688l6.85821-17.87446Z" transform="translate(-201.25197 -79.1915)" fill="#d0cde1"/><path d="M821.226,511.37532s-13.719,14.8556-3.63355,22.64888S830.163,516.1455,830.163,516.1455Z" transform="translate(-201.25197 -79.1915)" fill="#ffb8b8"/><path d="M840.97225,480.38809l-3.209,12.836-5.50114,10.08542s-18.79556,12.37757-18.79556,16.96185c0,0,8.25171-10.54385,18.79556,0l9.39778-22.6922Z" transform="translate(-201.25197 -79.1915)" fill="#d0cde1"/><ellipse cx="655.44532" cy="293.78557" rx="20.99963" ry="12.59978" fill="#2f2e41"/><path d="M898.27579,374.03271s-14.66971-8.25171-20.62927-2.29214,17.8787,15.12814,17.8787,15.12814Z" transform="translate(-201.25197 -79.1915)" fill="#ffb8b8"/><path d="M903.77693,419.41712l3.209-2.29214s3.66743-5.50114,6.87642-3.66743,22.00456-6.87642,22.00456-6.87642-6.87642,3.209-6.87642-2.29215-.91686-4.58428-5.50114-4.58428-4.58428,2.29214-6.418-.91686-.91685-5.04271-4.12585-3.209-6.87643.45842-7.79328-.91686-17.42028-3.66743-17.42028-3.66743,6.418-18.79556,7.79328-20.17084S932.19949,385.035,932.19949,385.035s44.46755,12.37757,33.00684,26.58885-52.71926,35.75741-52.71926,35.75741Z" transform="translate(-201.25197 -79.1915)" fill="#d0cde1"/></svg>