<svg xmlns="http://www.w3.org/2000/svg" fill="none" viewBox="0 0 250 250"><g transform="matrix(10.416666666666666,0,0,10.416666666666666,0,0)"><path fill="currentColor" class="text-blue-500" d="M23.04 2.75004C23.0251 2.70788 23.0023 2.66921 22.9729 2.63629C22.9435 2.60337 22.9082 2.57684 22.8688 2.55825C22.8296 2.53965 22.7871 2.52935 22.744 2.52794C22.7009 2.52653 22.6579 2.53404 22.6176 2.55004C22.5067 2.59084 22.4052 2.65558 22.32 2.74004C22.1856 2.86004 22.0416 3.04004 21.9552 3.12004L20.4 4.61004C19.824 5.21004 19.2384 5.82004 18.7104 6.47004C18.1824 7.12004 17.6928 7.81004 17.1936 8.47004C16.848 8.98004 16.5024 9.53004 16.0992 10.03C15.8514 10.353 15.575 10.651 15.2736 10.92C15.2427 10.943 15.2165 10.9721 15.1964 11.0056C15.1763 11.0392 15.1627 11.0765 15.1565 11.1155C15.1502 11.1545 15.1515 11.1944 15.16 11.2329C15.1686 11.2715 15.1843 11.3078 15.2064 11.34C15.2285 11.3722 15.2564 11.3995 15.2886 11.4204C15.3208 11.4414 15.3566 11.4555 15.3941 11.462C15.4697 11.4751 15.5472 11.4564 15.6096 11.41C15.9754 11.1549 16.319 10.8672 16.6368 10.55C17.1072 10.09 17.5392 9.55004 17.9616 9.11004C18.384 8.67004 18.6144 8.36004 18.9216 7.97004C19.2288 7.58004 19.7952 6.89004 20.2272 6.35004L21.12 5.28004L22.4448 3.66004L22.8288 3.20004C22.9132 3.16828 22.9825 3.10356 23.0218 3.01958C23.0613 2.93559 23.0677 2.83893 23.04 2.75004Z"></path><path fill="currentColor" class="text-gray-500" d="M2.64 9.49999C2.8704 9.22999 3.1104 8.96 3.3312 8.68C3.7152 8.21 4.08 7.67999 4.4832 7.22999C4.73694 6.9372 5.01304 6.66632 5.3088 6.41999C5.45054 6.29769 5.60143 6.18734 5.76 6.09C5.92289 5.99259 6.09304 5.90899 6.2688 5.84C6.70908 5.65405 7.19104 5.60232 7.65847 5.69085C8.1259 5.77938 8.55953 6.00451 8.9088 6.34C10.1184 7.34 11.0112 9.20999 11.856 10.42L13.152 12.24L14.6976 14.24C15.6961 15.6083 16.9419 16.7599 18.3648 17.63C18.9052 17.9427 19.5369 18.0381 20.1402 17.898C20.7436 17.7579 21.2767 17.3922 21.6384 16.87C21.6841 16.7986 21.703 16.7122 21.6915 16.6273C21.6801 16.5423 21.639 16.4647 21.5763 16.4092C21.5135 16.3536 21.4332 16.3241 21.351 16.3261C21.2686 16.3281 21.1899 16.3615 21.1296 16.42C20.8524 16.7974 20.4514 17.0551 20.0033 17.1436C19.5551 17.2322 19.0914 17.1455 18.7008 16.9C17.416 16.033 16.3071 14.9118 15.4368 13.6L13.9968 11.6L12.7488 9.74999C11.856 8.45999 10.896 6.52999 9.5904 5.44999C9.0947 4.99716 8.48384 4.70335 7.83145 4.60398C7.17906 4.50462 6.51301 4.60395 5.9136 4.88999C5.68788 4.98255 5.47227 5.09988 5.2704 5.23999C5.06843 5.37195 4.87593 5.519 4.6944 5.67999C4.3692 5.98539 4.07045 6.32001 3.8016 6.67999C3.4176 7.17999 3.072 7.67999 2.7072 8.20999L2.6112 8.32999C1.1616 9.91999 2.2176 9.99999 2.64 9.49999Z"></path><path fill="currentColor" class="text-blue-500" d="M12.6048 14.4C12.1496 15.0198 11.6557 15.6077 11.1264 16.16C10.6107 16.7015 10.0411 17.1842 9.42722 17.6C9.21298 17.7533 8.9884 17.8903 8.75522 18.01C8.61575 18.0932 8.45227 18.1216 8.29442 18.09C8.0798 18.0092 7.90408 17.844 7.80482 17.63C7.34402 16.89 7.08482 15.79 6.67202 15.23C6.36881 14.766 5.92509 14.4213 5.41173 14.251C4.89837 14.0806 4.345 14.0943 3.84002 14.29C3.39527 14.456 2.97762 14.692 2.60162 14.99C1.58402 15.8 1.79522 16.36 2.60162 15.99C3.05501 15.6237 3.57391 15.3551 4.12802 15.2C4.44512 15.1134 4.78069 15.1368 5.08386 15.2667C5.38702 15.3966 5.64126 15.626 5.80802 15.92C6.20162 16.47 6.42242 17.54 6.87362 18.26C7.12499 18.7098 7.5348 19.0399 8.01602 19.18C8.33937 19.2444 8.67385 19.2061 8.97602 19.07C9.31738 18.8976 9.63936 18.6863 9.936 18.44C10.4534 18.0428 10.9325 17.594 11.3664 17.1C12.001 16.3805 12.5819 15.6116 13.104 14.8C13.1297 14.7634 13.1482 14.7218 13.1582 14.6777C13.1683 14.6336 13.1699 14.5879 13.1627 14.5431C13.1556 14.4984 13.1399 14.4556 13.1166 14.4173C13.0933 14.379 13.0629 14.3459 13.0272 14.32C12.9589 14.2799 12.8793 14.2659 12.8022 14.2805C12.725 14.2952 12.6552 14.3374 12.6048 14.4Z"></path><path fill="currentColor" class="text-gray-500" d="M22.56 22.54C21.4848 22.49 20.2944 22.43 19.1136 22.39C18.3264 22.39 17.5392 22.39 16.8096 22.39C14.448 22.39 12.096 22.22 9.744 22.18C8.7264 22.18 7.69921 22.18 6.67201 22.27L2.2656 22.52H1.16161C1.02721 22.52 1.43041 20.41 1.37281 17.12C1.37281 17.12 1.04641 9.76997 1.05601 9.39997C1.05601 8.39997 1.11361 7.39997 1.11361 6.39997C1.11361 5.72997 1.11361 5.04997 1.11361 4.39997C1.02721 3.49997 0.864002 2.59997 0.835202 1.71997C0.812403 1.36588 0.828507 1.01025 0.883202 0.659968C0.890058 0.620511 0.889249 0.580023 0.880826 0.540897C0.872403 0.501771 0.856535 0.464801 0.834162 0.432172C0.811787 0.399543 0.78336 0.371917 0.750561 0.350927C0.717763 0.329938 0.681257 0.31601 0.643202 0.309968C0.606011 0.302734 0.567816 0.303204 0.530799 0.311352C0.493782 0.319499 0.458669 0.335165 0.427466 0.357452C0.396263 0.37974 0.369582 0.408214 0.348947 0.441247C0.328312 0.474279 0.314127 0.511223 0.307202 0.549968C0.24468 0.943194 0.215767 1.34142 0.220802 1.73997C0.220802 2.61997 0.364802 3.52997 0.384002 4.37997C0.384002 5.03997 0.384002 5.69997 0.384002 6.37997C0.384002 7.37997 0.278402 8.37997 0.220802 9.37997C0.0576025 12 0.326402 14.6 0.307202 17.22C0.307202 20.43 -0.00959753 22.52 0.0288025 22.74C0.0605404 22.9235 0.136518 23.0955 0.249602 23.24C0.451692 23.4677 0.72289 23.616 1.01761 23.66C1.45436 23.7159 1.89605 23.7159 2.33281 23.66L6.76801 23.35C7.72801 23.25 8.7552 23.21 9.744 23.2C12.1056 23.2 14.4576 23.29 16.8288 23.2C17.5488 23.2 18.3264 23.2 19.104 23.2C20.2752 23.2 21.4656 23.25 22.5312 23.27C22.6093 23.2561 22.6803 23.2138 22.7315 23.1507C22.7825 23.0875 22.8107 23.0076 22.8107 22.925C22.8107 22.8424 22.7825 22.7625 22.7315 22.6993C22.6803 22.6362 22.6093 22.5939 22.5312 22.58L22.56 22.54Z"></path></g></svg>