<svg xmlns="http://www.w3.org/2000/svg" fill="none" viewBox="0 0 250 250"><g transform="matrix(10.416666666666666,0,0,10.416666666666666,0,0)"><path fill="currentColor" class="text-gray-500" fill-rule="evenodd" d="M23.0858 8.74417C22.8862 7.93497 22.594 7.15148 22.215 6.40921C22.1384 6.24653 20.502 1.94024 14.0809 0.724915C11.4812 0.203622 8.78088 0.635002 6.47306 1.94024C5.0652 2.76706 3.84087 3.87247 2.87499 5.18882C1.90912 6.50517 1.22202 8.00478 0.855748 9.59586C0.44659 11.1864 0.389603 12.8471 0.688769 14.462C0.987941 16.0768 1.63606 17.6069 2.58783 18.9453C6.22425 23.931 12.3105 24.5148 16.99 22.1511C19.4164 20.9852 21.356 19.004 22.4702 16.5535C23.5844 14.103 23.8023 11.339 23.0858 8.74417ZM16.5594 21.2515C14.6543 22.2675 12.478 22.6589 10.3383 22.3704C8.19859 22.0819 6.20371 21.1281 4.63571 19.6439L5.65965 19.2994C6.28938 19.1311 6.92845 19.0001 7.57356 18.907C8.20514 18.8209 8.83673 18.7539 9.48749 18.7156C10.9038 18.5625 12.3009 18.4477 13.7077 18.3903C14.6286 18.3329 15.5523 18.3329 16.4732 18.3903C16.9422 18.3903 17.4302 18.4955 17.8704 18.5721C18.3106 18.6486 18.8273 18.7539 19.258 18.8592C19.4134 18.8993 19.5667 18.9472 19.7173 19.0027C18.799 19.925 17.7313 20.6854 16.5594 21.2515ZM20.1862 18.4572L19.392 18.1702C18.9326 18.0362 18.435 17.9022 17.9852 17.7874C17.5355 17.6725 17.0283 17.5768 16.5402 17.5003C15.5906 17.3518 14.6304 17.2813 13.6694 17.2898C12.2318 17.3321 10.7977 17.4502 9.37266 17.6438C8.69319 17.7395 8.04246 17.8544 7.4013 18.0075C6.7506 18.1575 6.11108 18.3526 5.4874 18.5912L4.33906 19.0793L4.22422 19.1271C3.97955 18.8524 3.74955 18.5649 3.53522 18.2659C2.66611 17.0583 2.06822 15.6772 1.78247 14.2172C1.49673 12.7571 1.52989 11.2524 1.87969 9.80639C2.19641 8.34326 2.80555 6.95922 3.67053 5.73739C4.53552 4.51555 5.6385 3.48114 6.91326 2.69623C9.03755 1.45499 11.5366 1.01697 13.9565 1.46176C19.9278 2.47613 21.258 6.05514 21.6121 6.75371C21.9554 7.45461 22.2156 8.1933 22.3872 8.9547C22.8142 10.5987 22.8371 12.3216 22.4537 13.9763C22.0705 15.631 21.2925 17.1684 20.1862 18.4572Z" clip-rule="evenodd"></path><path fill="currentColor" class="text-blue-500" fill-rule="evenodd" d="M18.5785 6.46665C18.6161 6.35699 18.6207 6.23874 18.5918 6.1265C18.5629 6.01426 18.5017 5.91293 18.4159 5.83506C18.3489 5.77279 18.2672 5.72867 18.1784 5.70689C18.0896 5.68512 17.9968 5.68641 17.9087 5.71065C17.7538 5.75846 17.6034 5.81929 17.4589 5.89247C16.4594 6.46412 15.5001 7.10358 14.5881 7.80638C12.8464 9.07913 10.9995 10.7251 10.4636 11.8734C10.2632 12.287 10.171 12.7446 10.1956 13.2036C10.2195 13.6717 10.3903 14.1204 10.6837 14.4859C10.7753 14.5888 10.8745 14.6848 10.9803 14.773C12.6741 16.1797 14.0139 15.0122 14.9421 13.8735C16.4004 11.8304 17.5485 9.58269 18.3489 7.2035C18.4733 6.84943 18.5498 6.59105 18.5785 6.46665ZM14.2818 13.328C13.2196 14.7347 12.4732 15.2419 11.143 14.0361C10.943 13.7582 10.8419 13.4213 10.8559 13.0792C10.8616 12.7438 10.9504 12.415 11.1143 12.1222C11.6108 11.3854 12.2289 10.7382 12.9421 10.2083C14.2739 9.15479 15.6776 8.19551 17.1431 7.33747C16.4648 9.45459 15.5022 11.4698 14.2818 13.328Z" clip-rule="evenodd"></path><path fill="currentColor" class="text-gray-500" fill-rule="evenodd" d="M6.11902 13.2515C5.70753 13.2515 5.29604 13.2515 4.86541 13.2515H4.54962C4.3114 13.275 4.07489 13.3133 3.84147 13.3663L3.20031 13.5577C3.06652 13.5757 2.93501 13.6078 2.80796 13.6534C2.56873 13.7682 2.52088 13.9309 2.59743 14.0553C2.61023 14.0914 2.63011 14.1246 2.65592 14.1529C2.68174 14.1813 2.71296 14.204 2.74773 14.2201C2.78251 14.2362 2.82015 14.2451 2.85843 14.2464C2.89672 14.2477 2.93487 14.2413 2.97065 14.2276C2.97065 14.3233 3.22902 14.2276 3.25773 14.2276L3.94674 14.3041H4.30081C4.48679 14.3029 4.67238 14.2869 4.85584 14.2563C5.33431 14.196 5.80354 14.0771 6.25299 13.9022C6.33743 13.8797 6.40969 13.8251 6.45439 13.75C6.49908 13.6749 6.51266 13.5853 6.49223 13.5003C6.48423 13.4593 6.4682 13.4205 6.44507 13.3858C6.42194 13.351 6.39217 13.3213 6.35747 13.2981C6.32277 13.275 6.28384 13.259 6.24291 13.251C6.20199 13.243 6.15987 13.2432 6.11902 13.2515Z" clip-rule="evenodd"></path><path fill="currentColor" class="text-gray-500" fill-rule="evenodd" d="M7.39175 7.32792C7.17335 7.09598 6.94 6.87861 6.69317 6.67719C6.52229 6.53864 6.33209 6.42581 6.12857 6.34226C5.73341 6.1701 5.29169 6.13639 4.87496 6.24656C4.83712 6.25127 4.80061 6.26346 4.76753 6.28244C4.73445 6.3014 4.70549 6.32678 4.68233 6.35707C4.65917 6.38736 4.64227 6.42195 4.63262 6.45884C4.62298 6.49573 4.62079 6.53418 4.62616 6.57193C4.62616 6.76332 4.62616 6.57193 5.58311 7.2705L5.88933 7.46189L6.23384 7.615C6.59748 7.75855 6.91327 7.85424 7.09509 7.91166C7.1687 7.95734 7.25743 7.97192 7.34178 7.95218C7.42613 7.93244 7.49918 7.88 7.54486 7.8064C7.59055 7.7328 7.60512 7.64406 7.58538 7.55971C7.56564 7.47537 7.5132 7.40231 7.4396 7.35663L7.39175 7.32792Z" clip-rule="evenodd"></path><path fill="currentColor" class="text-gray-500" fill-rule="evenodd" d="M11.6693 5.63417C11.6877 5.71759 11.7381 5.79043 11.8097 5.83698C11.8814 5.88352 11.9684 5.90005 12.0521 5.88298C12.0949 5.8762 12.1358 5.86071 12.1724 5.83744C12.2089 5.81417 12.2402 5.78365 12.2645 5.74774C12.2888 5.71184 12.3053 5.67134 12.3133 5.62875C12.3211 5.58616 12.3202 5.54241 12.3105 5.5002C12.3105 5.22268 12.3105 4.82076 12.3105 4.36142C12.3105 4.20831 12.3105 4.04563 12.3105 3.89252C12.3105 3.7394 12.3105 3.57672 12.2531 3.43318C12.0043 2.13172 12.1956 2.18914 11.966 2.07431C11.9322 2.05617 11.8951 2.04499 11.8569 2.04145C11.8186 2.0379 11.7801 2.04205 11.7435 2.05365C11.7069 2.06524 11.6731 2.08406 11.6439 2.10898C11.6147 2.13389 11.5909 2.1644 11.5736 2.19871C11.307 2.63941 11.174 3.14804 11.1908 3.66285C11.1962 3.93762 11.2348 4.21074 11.3057 4.47626C11.396 4.87124 11.5176 5.25843 11.6693 5.63417Z" clip-rule="evenodd"></path><path fill="currentColor" class="text-gray-500" fill-rule="evenodd" d="M21.2867 12.9453C20.9093 12.863 20.5246 12.8181 20.1383 12.8113C19.979 12.8018 19.8192 12.8018 19.6599 12.8113C19.5039 12.8275 19.35 12.8595 19.2005 12.907C18.8273 13.0314 18.5115 13.1941 18.1766 13.3281C18.1019 13.3398 18.0349 13.3807 17.9901 13.4416C17.9453 13.5025 17.9263 13.5786 17.9374 13.6534C17.9491 13.7282 17.9899 13.7951 18.0508 13.8399C18.1118 13.8847 18.1879 13.9037 18.2627 13.8927C18.6834 13.9173 19.1052 13.9173 19.5259 13.8927C19.7581 13.9141 19.9917 13.9174 20.2245 13.9022C20.5785 13.8257 20.9039 13.7108 21.2676 13.6534C21.3106 13.656 21.3537 13.6498 21.3942 13.6351C21.4348 13.6204 21.472 13.5975 21.5033 13.568C21.5347 13.5384 21.5597 13.5027 21.5767 13.4631C21.5938 13.4235 21.6026 13.3808 21.6025 13.3376C21.6124 13.2905 21.6117 13.2417 21.6005 13.1949C21.5893 13.148 21.5677 13.1041 21.5375 13.0666C21.5074 13.0291 21.4692 12.9988 21.4257 12.9777C21.3824 12.9568 21.3348 12.9457 21.2867 12.9453Z" clip-rule="evenodd"></path></g></svg>