<svg viewBox="0 0 100 100" xmlns="http://www.w3.org/2000/svg">
    <g class="[--illustration-bg:var(--color-white)] [--illustration-accent-light:var(--color-primary-200)] [--illustration-accent:var(--color-primary-600)] [--illustration-accent-bg:var(--color-primary-50)]">
        <path d="M10.438 50a40 40 0 1 0 80 0 40 40 0 1 0 -80 0Z" class="fill-(--illustration-accent-bg)" stroke-width="1"></path>
        <path d="M58.487 63.545h5.225v10.45h-5.225z" class="fill-(--illustration-bg) stroke-(--illustration-accent)" stroke-linecap="round" stroke-linejoin="round" stroke-width="1"></path>
        <path d="M53.262 46.317v-3.241h-6.65v3.241a14.721 14.721 0 0 0 -11.4 14.334v2.894h5.7V74h17.575V63.545h6.175v-2.894a14.72 14.72 0 0 0 -11.4 -14.334Z" class="fill-(--illustration-bg)" stroke-width="1"></path>
        <path d="M53.262 46.317v-3.241h-6.65v3.241a14.721 14.721 0 0 0 -11.4 14.334v2.894h5.7V74h17.575V63.545h6.175v-2.894a14.72 14.72 0 0 0 -11.4 -14.334Z" fill="none" class="stroke-(--illustration-accent)" stroke-linecap="round" stroke-linejoin="round" stroke-width="1"></path>
        <path d="M36.162 66.395h4.75v7.6h-4.75z" class="fill-(--illustration-bg) stroke-(--illustration-accent)" stroke-linecap="round" stroke-linejoin="round" stroke-width="1"></path>
        <path d="M49.937 52.971V74h-9.025V63.545h-5.7v-2.9c0 -0.218 0.01 -0.437 0.01 -0.646A14.693 14.693 0 0 1 43.6 47.376l3.961 2.318Z" class="fill-(--illustration-accent-light)" stroke-width="1"></path>
        <path d="M49.937 52.971V74h-9.025V63.545h-5.7v-2.9c0 -0.218 0.01 -0.437 0.01 -0.646A14.693 14.693 0 0 1 43.6 47.376l3.961 2.318Z" fill="none" class="stroke-(--illustration-accent)" stroke-linecap="round" stroke-linejoin="round" stroke-width="1"></path>
        <path d="M64.662 60.619v2.926h-6.175V74h-8.55V52.971l1.9 -3.277 4.427 -2.328a14.69 14.69 0 0 1 8.398 13.253Z" class="fill-(--illustration-accent-light)" stroke-width="1"></path>
        <path d="M64.662 60.619v2.926h-6.175V74h-8.55V52.971l1.9 -3.277 4.427 -2.328a14.69 14.69 0 0 1 8.398 13.253Z" fill="none" class="stroke-(--illustration-accent)" stroke-linecap="round" stroke-linejoin="round" stroke-width="1"></path>
        <path d="M58.487 63.545v-2.277a8.381 8.381 0 0 1 0.95 -3.865h0" fill="none" class="stroke-(--illustration-accent)" stroke-linecap="round" stroke-linejoin="round" stroke-width="1"></path>
        <path d="M40.912 63.545v-2.264a8.382 8.382 0 0 0 -0.95 -3.878" fill="none" class="stroke-(--illustration-accent)" stroke-linecap="round" stroke-linejoin="round" stroke-width="1"></path>
        <path d="m34.737 63.545 6.65 0 0 2.85 -6.65 0Z" class="fill-(--illustration-bg) stroke-(--illustration-accent)" stroke-linecap="round" stroke-linejoin="round" stroke-width="1"></path>
        <path d="m47.562 49.694 -1.475 2.975c-0.832 1.678 -3.768 -1.015 -5.328 -2.853a0.949 0.949 0 0 1 0.389 -1.5l2.453 -0.943Z" class="fill-(--illustration-bg) stroke-(--illustration-accent)" stroke-linecap="round" stroke-linejoin="round" stroke-width="1"></path>
        <path d="m51.837 49.69 1.9 3.836 0.737 -0.368a12.907 12.907 0 0 0 4.963 -4.382h0L56.3 47.351Z" class="fill-(--illustration-bg) stroke-(--illustration-accent)" stroke-linecap="round" stroke-linejoin="round" stroke-width="1"></path>
        <path d="M40.912 69.245h17.575v2.85H40.912z" class="fill-(--illustration-bg) stroke-(--illustration-accent)" stroke-linecap="round" stroke-linejoin="round" stroke-width="1"></path>
        <path d="m53.265 44.5 4.2 2.364a6.665 6.665 0 0 1 2.489 9.167 11.789 11.789 0 0 0 -1.253 8.8l0.261 1.047 -1.734 -1.128a12.13 12.13 0 0 1 -4.94 -13.87l0.977 -3.054Z" class="fill-(--illustration-bg)" stroke-width="1"></path>
        <path d="M59.437 33.1v-2.374a9.5 9.5 0 0 0 -19 0V33.1a1.9 1.9 0 1 0 0 3.8c0.04 0 0.078 -0.01 0.117 -0.012a9.487 9.487 0 0 0 18.767 0c0.039 0 0.077 0.012 0.116 0.012a1.9 1.9 0 1 0 0 -3.8Z" class="fill-(--illustration-bg) stroke-(--illustration-accent)" stroke-linecap="round" stroke-linejoin="round" stroke-width="1"></path>
        <path d="M43.288 37.138a1.187 1.187 0 1 0 2.374 0 1.187 1.187 0 1 0 -2.374 0Z" class="fill-(--illustration-accent-light)" stroke-width="1"></path>
        <path d="M54.213 37.138a1.187 1.187 0 1 0 2.374 0 1.187 1.187 0 1 0 -2.374 0Z" class="fill-(--illustration-accent-light)" stroke-width="1"></path>
        <path d="M47.08 39.551a4.143 4.143 0 0 0 5.715 0" fill="none" class="stroke-(--illustration-accent)" stroke-linecap="round" stroke-linejoin="round" stroke-width="1"></path>
        <path d="M55.162 34.051a1.547 1.547 0 0 0 -2.857 0" fill="none" class="stroke-(--illustration-accent)" stroke-linecap="round" stroke-linejoin="round" stroke-width="1"></path>
        <path d="M47.555 34.051a1.548 1.548 0 0 0 -2.858 0" fill="none" class="stroke-(--illustration-accent)" stroke-linecap="round" stroke-linejoin="round" stroke-width="1"></path>
        <path d="m53.265 44.5 4.2 2.364a6.665 6.665 0 0 1 2.489 9.167 11.789 11.789 0 0 0 -1.253 8.8l0.261 1.047 -1.734 -1.128a12.13 12.13 0 0 1 -4.94 -13.87l0.977 -3.054Z" fill="none" class="stroke-(--illustration-accent)" stroke-linecap="round" stroke-linejoin="round" stroke-width="1"></path>
        <path d="M47.565 20.276A10.776 10.776 0 0 0 38.538 31.2V35a1.9 1.9 0 0 1 1.9 -1.9c0 -5.7 6.652 -8.075 7.6 -8.075h2.375v-4.75Z" class="fill-(--illustration-bg)" stroke-width="1"></path>
        <path d="M47.565 20.276A10.776 10.776 0 0 0 38.538 31.2V35a1.9 1.9 0 0 1 1.9 -1.9c0 -5.7 6.652 -8.075 7.6 -8.075h2.375v-4.75Z" fill="none" class="stroke-(--illustration-accent)" stroke-linecap="round" stroke-linejoin="round" stroke-width="1"></path>
        <path d="M49.006 25.731a3.858 3.858 0 0 1 -1.441 -3v-0.014c0 -7.662 14.725 -1.8 14.725 5.132a6.149 6.149 0 0 1 -2.213 4.724l-0.64 0.532c0 -3.805 -8.271 -5.638 -10.431 -7.374Z" class="fill-(--illustration-bg)" stroke-width="1"></path>
        <path d="M49.006 25.731a3.858 3.858 0 0 1 -1.441 -3v-0.014c0 -7.662 14.725 -1.8 14.725 5.132a6.149 6.149 0 0 1 -2.213 4.724l-0.64 0.532c0 -3.805 -8.271 -5.638 -10.431 -7.374Z" fill="none" class="stroke-(--illustration-accent)" stroke-linecap="round" stroke-linejoin="round" stroke-width="1"></path>
        <path d="m58.012 63.545 7.125 0 0 2.85 -7.125 0Z" class="fill-(--illustration-bg) stroke-(--illustration-accent)" stroke-linecap="round" stroke-linejoin="round" stroke-width="1"></path>
        <path d="M39.012 66.87a14.725 14.725 0 0 0 -15.436 -14.709A15 15 0 0 0 9.562 67.285v1.96h5.7V74h18.05v-4.75h4.75a0.95 0.95 0 0 0 0.95 -0.95Z" class="fill-(--illustration-bg)" stroke-width="1"></path>
        <path d="m15.262 72.095 18.05 0" fill="none" class="stroke-(--illustration-accent)" stroke-linecap="round" stroke-linejoin="round" stroke-width="1"></path>
        <path d="m9.562 69.245 28.499 0" fill="none" class="stroke-(--illustration-accent)" stroke-linecap="round" stroke-linejoin="round" stroke-width="1"></path>
        <path d="m9.588 66.395 29.424 0" fill="none" class="stroke-(--illustration-accent)" stroke-linecap="round" stroke-linejoin="round" stroke-width="1"></path>
        <path d="m10.023 63.545 28.612 0" fill="none" class="stroke-(--illustration-accent)" stroke-linecap="round" stroke-linejoin="round" stroke-width="1"></path>
        <path d="m11.044 60.695 26.615 0" fill="none" class="stroke-(--illustration-accent)" stroke-linecap="round" stroke-linejoin="round" stroke-width="1"></path>
        <path d="m12.794 57.845 23.129 0" fill="none" class="stroke-(--illustration-accent)" stroke-linecap="round" stroke-linejoin="round" stroke-width="1"></path>
        <path d="m15.695 54.995 17.298 0" fill="none" class="stroke-(--illustration-accent)" stroke-linecap="round" stroke-linejoin="round" stroke-width="1"></path>
        <path d="M39.012 66.87a14.725 14.725 0 0 0 -15.436 -14.709A15 15 0 0 0 9.562 67.285v1.96h5.7V74h18.05v-4.75h4.75a0.95 0.95 0 0 0 0.95 -0.95Z" fill="none" class="stroke-(--illustration-accent)" stroke-linecap="round" stroke-linejoin="round" stroke-width="1"></path>
        <path d="m15.262 65.445 0 8.55" fill="none" class="stroke-(--illustration-accent)" stroke-linecap="round" stroke-linejoin="round" stroke-width="1"></path>
        <path d="m33.312 65.445 0 3.8" fill="none" class="stroke-(--illustration-accent)" stroke-linecap="round" stroke-linejoin="round" stroke-width="1"></path>
        <path d="M20.962 52.62a3.325 3.325 0 0 0 6.65 0V49.3h-6.65Z" class="fill-(--illustration-bg)" stroke-width="1"></path>
        <path d="M24.287 55.945a3.325 3.325 0 0 1 -3.325 -3.325V49.3h6.65v3.32a3.325 3.325 0 0 1 -3.325 3.325Z" fill="none" class="stroke-(--illustration-accent)" stroke-linecap="round" stroke-linejoin="round" stroke-width="1"></path>
        <path d="M10.511 69.245h4.751v4.75h-4.751z" class="fill-(--illustration-bg) stroke-(--illustration-accent)" stroke-linecap="round" stroke-linejoin="round" stroke-width="1"></path>
        <path d="M33.312 69.245h4.749v4.75h-4.749z" class="fill-(--illustration-bg) stroke-(--illustration-accent)" stroke-linecap="round" stroke-linejoin="round" stroke-width="1"></path>
        <path d="M15.262 73.045V74h4.75c3.36 -2.7 11.737 -12.83 14.175 -17.677a0.945 0.945 0 0 0 -0.229 -1.154 15.263 15.263 0 0 0 -2.473 -1.675 0.955 0.955 0 0 0 -1.374 0.54c-1.264 4.177 -5.538 11.636 -14.849 19.011Z" class="fill-(--illustration-accent-light) stroke-(--illustration-accent)" stroke-linecap="round" stroke-linejoin="round" stroke-width="1"></path>
        <path d="M90.312 66.87a14.725 14.725 0 1 0 -29.45 0V74h29.45Z" class="fill-(--illustration-bg) stroke-(--illustration-accent)" stroke-linecap="round" stroke-linejoin="round" stroke-width="1"></path>
        <path d="M72.262 55.47a3.325 3.325 0 0 0 6.65 0v-8.55h-6.65Z" class="fill-(--illustration-bg)" stroke-width="1"></path>
        <path d="M72.262 55.47a3.325 3.325 0 0 0 6.65 0v-8.55h-6.65Z" fill="none" class="stroke-(--illustration-accent)" stroke-linecap="round" stroke-linejoin="round" stroke-width="1"></path>
        <path d="m72.262 51.67 3.325 7.13 -4.307 1.561a0.95 0.95 0 0 1 -1.226 -0.592l-2.067 -6.2Z" class="fill-(--illustration-bg) stroke-(--illustration-accent)" stroke-linecap="round" stroke-linejoin="round" stroke-width="1"></path>
        <path d="m78.912 51.67 -3.325 7.13 4.313 1.561a0.95 0.95 0 0 0 1.226 -0.592l2.066 -6.2Z" class="fill-(--illustration-bg) stroke-(--illustration-accent)" stroke-linecap="round" stroke-linejoin="round" stroke-width="1"></path>
        <path d="m75.587 58.795 0 15.2" class="fill-(--illustration-bg) stroke-(--illustration-accent)" stroke-linecap="round" stroke-linejoin="round" stroke-width="1"></path>
        <path d="M72.262 71.62V74h-11.4v-7.13a14.71 14.71 0 0 1 9.263 -13.67Z" class="fill-(--illustration-accent-light)" stroke-width="1"></path>
        <path d="M72.262 71.62V74h-11.4v-7.13a14.71 14.71 0 0 1 9.263 -13.67Z" fill="none" class="stroke-(--illustration-accent)" stroke-linecap="round" stroke-linejoin="round" stroke-width="1"></path>
        <path d="M90.312 66.87V74h-11.4v-2.38L81.05 53.2a14.71 14.71 0 0 1 9.262 13.67Z" class="fill-(--illustration-bg)" stroke-width="1"></path>
        <path d="m80.681 56.375 0.369 -3.175a14.71 14.71 0 0 1 9.262 13.67v3.325a14.729 14.729 0 0 0 -9.631 -13.82Z" class="fill-(--illustration-bg)" stroke-width="1"></path>
        <path d="M90.312 66.87V74h-11.4v-2.38L81.05 53.2a14.71 14.71 0 0 1 9.262 13.67Z" class="fill-(--illustration-accent-light)" stroke-width="1"></path>
        <path d="M90.312 66.87V74h-11.4v-2.38L81.05 53.2a14.71 14.71 0 0 1 9.262 13.67Z" fill="none" class="stroke-(--illustration-accent)" stroke-linecap="round" stroke-linejoin="round" stroke-width="1"></path>
        <path d="m72.262 51.67 -1.069 0.474a1.416 1.416 0 0 0 -0.8 1.655c0.27 1.024 0.611 2.532 0.931 4.54a87.716 87.716 0 0 1 0.94 13.281s-2.375 -10.45 -4.275 -11.875a7.627 7.627 0 0 1 -2.85 -6.175c0 -2.309 2.983 -4.266 7.125 -4.95Z" class="fill-(--illustration-accent-light) stroke-(--illustration-accent)" stroke-linecap="round" stroke-linejoin="round" stroke-width="1"></path>
        <path d="m78.912 51.67 1.07 0.474a1.416 1.416 0 0 1 0.8 1.655c-0.27 1.024 -0.611 2.532 -0.931 4.54a87.588 87.588 0 0 0 -0.941 13.281s2.375 -10.45 4.275 -11.875a7.624 7.624 0 0 0 2.85 -6.175c0 -2.309 -2.983 -4.266 -7.125 -4.95Z" class="fill-(--illustration-accent-light) stroke-(--illustration-accent)" stroke-linecap="round" stroke-linejoin="round" stroke-width="1"></path>
        <path d="m66.562 65.92 0 8.075" fill="none" class="stroke-(--illustration-accent)" stroke-linecap="round" stroke-linejoin="round" stroke-width="1"></path>
        <path d="m84.612 65.92 0 8.075" fill="none" class="stroke-(--illustration-accent)" stroke-linecap="round" stroke-linejoin="round" stroke-width="1"></path>
        <path d="M85.336 39.2v-2.285a9.717 9.717 0 1 0 -19.434 0V39.2a1.716 1.716 0 0 0 -1.715 1.716v0.571A1.715 1.715 0 0 0 65.9 43.2c0.055 0 0.105 -0.011 0.158 -0.016a9.707 9.707 0 0 0 19.118 0c0.053 0.005 0.1 0.016 0.158 0.016a1.715 1.715 0 0 0 1.715 -1.715v-0.571a1.716 1.716 0 0 0 -1.713 -1.714Z" class="fill-(--illustration-bg) stroke-(--illustration-accent)" stroke-linecap="round" stroke-linejoin="round" stroke-width="1"></path>
        <path d="M82.478 43.2a1.143 1.143 0 1 1 -1.143 -1.143 1.142 1.142 0 0 1 1.143 1.143Z" class="fill-(--illustration-accent-light)" stroke-width="1"></path>
        <path d="M71.047 43.2a1.144 1.144 0 1 1 -1.147 -1.141 1.143 1.143 0 0 1 1.147 1.141Z" class="fill-(--illustration-accent-light)" stroke-width="1"></path>
        <path d="M80.82 40.153a1.548 1.548 0 0 0 -2.858 0" fill="none" class="stroke-(--illustration-accent)" stroke-linecap="round" stroke-linejoin="round" stroke-width="1"></path>
        <path d="M73.212 40.153a1.547 1.547 0 0 0 -2.857 0" fill="none" class="stroke-(--illustration-accent)" stroke-linecap="round" stroke-linejoin="round" stroke-width="1"></path>
        <path d="M72.721 45.5a4.145 4.145 0 0 0 5.716 0" fill="none" class="stroke-(--illustration-accent)" stroke-linecap="round" stroke-linejoin="round" stroke-width="1"></path>
        <path d="M74.476 25.455c-6.859 0 -9.717 5.012 -9.814 9.717v4c2.955 0 2.955 -3.43 2.955 -3.43s6.859 1.143 11.432 -2.286c0 0 2.858 5.716 7.463 5.716v-4c-0.032 -5.748 -1.245 -8 -6.892 -8 0 -0.002 -0.571 -1.717 -5.144 -1.717Z" class="fill-(--illustration-bg)" stroke-width="1"></path>
        <path d="M74.476 25.455c-6.859 0 -9.717 5.012 -9.814 9.717v4c2.955 0 2.955 -3.43 2.955 -3.43s6.859 1.143 11.432 -2.286c0 0 2.858 5.716 7.463 5.716v-4c-0.032 -5.748 -1.245 -8 -6.892 -8 0 -0.002 -0.571 -1.717 -5.144 -1.717Z" fill="none" class="stroke-(--illustration-accent)" stroke-linecap="round" stroke-linejoin="round" stroke-width="1"></path>
        <path d="M72.431 42.645h-3.1a2.351 2.351 0 0 1 -2.287 -2.329v-1.908a0.951 0.951 0 0 1 0.95 -0.95h5.776a1.143 1.143 0 0 1 1.136 1.269l-0.2 1.842a2.357 2.357 0 0 1 -2.275 2.076Z" fill="none" class="stroke-(--illustration-accent)" stroke-linecap="round" stroke-linejoin="round" stroke-width="1"></path>
        <path d="M78.809 42.645h3.1a2.266 2.266 0 0 0 2.23 -2.329v-1.908a0.872 0.872 0 0 0 -0.894 -0.95h-5.776a1.144 1.144 0 0 0 -1.137 1.27l0.205 1.841a2.358 2.358 0 0 0 2.272 2.076Z" fill="none" class="stroke-(--illustration-accent)" stroke-linecap="round" stroke-linejoin="round" stroke-width="1"></path>
        <path d="m74.857 39.174 1.524 0" fill="none" class="stroke-(--illustration-accent)" stroke-linecap="round" stroke-linejoin="round" stroke-width="1"></path>
        <path d="m13.367 40.274 -1.049 -0.35a0.285 0.285 0 0 1 -0.138 -0.441l1.187 -1.583 -1.049 -0.35a0.285 0.285 0 0 1 -0.138 -0.441l1.187 -1.583h2.374v4.748Z" class="fill-(--illustration-bg) stroke-(--illustration-accent)" stroke-linecap="round" stroke-linejoin="round" stroke-width="1"></path>
        <path d="m35.208 40.274 1.049 -0.35a0.285 0.285 0 0 0 0.138 -0.441L35.208 37.9l1.049 -0.35a0.285 0.285 0 0 0 0.138 -0.441l-1.187 -1.583h-2.374v4.748Z" class="fill-(--illustration-bg) stroke-(--illustration-accent)" stroke-linecap="round" stroke-linejoin="round" stroke-width="1"></path>
        <path d="M33.784 39.324V36.95a9.5 9.5 0 0 0 -18.993 0v2.374a1.9 1.9 0 0 0 0 3.8c0.04 0 0.077 -0.009 0.117 -0.012a9.483 9.483 0 0 0 18.759 0c0.04 0 0.077 0.012 0.117 0.012a1.9 1.9 0 0 0 0 -3.8Z" class="fill-(--illustration-bg)" stroke-width="1"></path>
        <path d="M33.784 39.324V36.95a9.5 9.5 0 0 0 -18.993 0v2.374a1.9 1.9 0 0 0 0 3.8c0.04 0 0.077 -0.009 0.117 -0.012a9.483 9.483 0 0 0 18.759 0c0.04 0 0.077 0.012 0.117 0.012a1.9 1.9 0 0 0 0 -3.8Z" fill="none" class="stroke-(--illustration-accent)" stroke-linecap="round" stroke-linejoin="round" stroke-width="1"></path>
        <path d="M17.64 43.36a1.187 1.187 0 1 0 2.374 0 1.187 1.187 0 1 0 -2.374 0Z" class="fill-(--illustration-accent-light)" stroke-width="1"></path>
        <path d="M28.561 43.36a1.187 1.187 0 1 0 2.374 0 1.187 1.187 0 1 0 -2.374 0Z" class="fill-(--illustration-accent-light)" stroke-width="1"></path>
        <path d="M21.431 45.772a4.143 4.143 0 0 0 5.713 0" fill="none" class="stroke-(--illustration-accent)" stroke-linecap="round" stroke-linejoin="round" stroke-width="1"></path>
        <path d="M21.913 40.274a1.542 1.542 0 0 0 -2.848 0" fill="none" class="stroke-(--illustration-accent)" stroke-linecap="round" stroke-linejoin="round" stroke-width="1"></path>
        <path d="M26.662 40.274a1.542 1.542 0 0 1 2.848 0" fill="none" class="stroke-(--illustration-accent)" stroke-linecap="round" stroke-linejoin="round" stroke-width="1"></path>
        <path d="M35.208 32.606a8 8 0 0 0 -8 -8h-5.841a8 8 0 0 0 -8 8v2.92h21.841Z" class="fill-(--illustration-accent-light)" stroke-width="1"></path>
        <path d="M35.208 32.606a8 8 0 0 0 -8 -8h-5.841a8 8 0 0 0 -8 8v2.92h21.841Z" fill="none" class="stroke-(--illustration-accent)" stroke-linecap="round" stroke-linejoin="round" stroke-width="1"></path>
        <path d="M24.287 30.3h0a2.374 2.374 0 0 0 -2.374 2.374 0.475 0.475 0 0 0 0.475 0.475h4.274v-0.475a2.374 2.374 0 0 0 -2.375 -2.374Z" class="fill-(--illustration-bg) stroke-(--illustration-accent)" stroke-linecap="round" stroke-linejoin="round" stroke-width="1"></path>
        <path d="M26.662 33.152h0.238a1.186 1.186 0 0 1 1.187 1.187h0a1.186 1.186 0 0 1 -1.187 1.187h-0.237" fill="none" class="stroke-(--illustration-accent)" stroke-linecap="round" stroke-linejoin="round" stroke-width="1"></path>
        <path d="M26 49.675a0.951 0.951 0 0 0 -0.76 -0.38h-1.9a0.948 0.948 0 0 0 -0.759 0.38l-0.745 0.992a0.479 0.479 0 0 0 -0.073 0.427 0.474 0.474 0 0 0 0.3 0.309l0.8 0.266 1.045 1.393a0.474 0.474 0 0 0 0.759 0l1.045 -1.393 0.8 -0.266a0.476 0.476 0 0 0 0.23 -0.736Z" class="fill-(--illustration-bg) stroke-(--illustration-accent)" stroke-linecap="round" stroke-linejoin="round" stroke-width="1"></path>
    </g>
</svg>