<svg xmlns="http://www.w3.org/2000/svg" fill="none" viewBox="0 0 250 250"><g transform="matrix(10.416666666666666,0,0,10.416666666666666,0,0)"><path fill="currentColor" class="text-gray-500" fill-rule="evenodd" d="M13.25 20C13.4101 20.0464 13.58 20.0464 13.74 20C14.62 19.76 16.66 17.67 16.9 17.36C17.28 16.86 20.49 7.61996 20.72 6.94996C21.94 3.43996 22.15 2.81996 21.81 1.86996C21.4841 1.29117 20.954 0.854678 20.3235 0.645727C19.6929 0.436776 19.0071 0.470375 18.4 0.739962C18.0179 0.95957 17.6979 1.27271 17.47 1.64996C17.2132 1.5684 16.9483 1.51476 16.68 1.48996C16.2763 1.48341 15.8781 1.58467 15.5265 1.7833C15.175 1.98193 14.8828 2.27075 14.68 2.61996C14.1707 3.7605 13.8337 4.97037 13.68 6.20996C13.6651 6.28531 13.6787 6.36351 13.7182 6.42941C13.7577 6.4953 13.8202 6.54419 13.8937 6.5666C13.9671 6.58902 14.0463 6.58336 14.1159 6.55072C14.1854 6.51809 14.2403 6.4608 14.27 6.38996C15.76 3.13996 15.82 2.22996 17.2 2.38996C17.01 2.95996 17.26 3.29996 17.42 3.38996L20.7 4.41996C20.63 4.63996 16.7 14.77 16.51 15.3C15.7577 14.636 14.7832 14.2791 13.78 14.3C14.52 11.91 16.09 7.29996 16.78 5.17996C17.47 3.05996 16.72 3.52996 16.17 4.94996C13.78 11.12 12.1 15.31 12.29 15.85C12.38 16.1 12.72 18.59 12.92 19.25C12.9434 19.5298 13.0595 19.7937 13.25 20ZM13.84 18.63C13.3 15.32 13.44 15.98 13.57 15.13C14.41 15.5543 15.3004 15.8702 16.22 16.07C16.1504 16.2707 16.0702 16.4676 15.98 16.66C15.3267 17.373 14.6105 18.0256 13.84 18.61V18.63ZM17.7 2.70996C17.927 2.24576 18.3247 1.88739 18.81 1.70996C19.1757 1.64803 19.5505 1.66888 19.907 1.77099C20.2635 1.8731 20.5926 2.05386 20.87 2.29996C20.9882 2.50947 21.0609 2.74157 21.0833 2.98109C21.1057 3.22061 21.0773 3.46216 21 3.68996C20.68 3.57996 18.25 2.88996 17.7 2.70996Z" clip-rule="evenodd"></path><path fill="currentColor" class="text-blue-500" fill-rule="evenodd" d="M16.92 20.27C16.7484 20.0591 16.519 19.9027 16.26 19.82C15.9207 19.758 15.5715 19.7793 15.2423 19.8821C14.9131 19.9848 14.6137 20.166 14.37 20.41C14.45 19.52 14.3 18.62 13.45 18.31C11.99 17.79 10.77 19.11 9.84 20.31C9.84 18.85 9.15 17.42 7.71 17.17C5.61 16.81 3.96 19.17 2.85 21.01C2.27 21.95 1.5 23.42 2.6 23.5C2.64021 23.5056 2.68112 23.5029 2.72028 23.4923C2.75943 23.4816 2.79601 23.463 2.8278 23.4378C2.85958 23.4125 2.88592 23.3811 2.9052 23.3454C2.92449 23.3097 2.93633 23.2704 2.94 23.23C2.94 22.94 2.26 23.14 3.46 21.4C4.33 20.13 5.99 17.85 7.51 18.2C8.37 18.39 8.69 19.45 8.68 20.33V21.33C8.63058 21.6009 8.6005 21.8749 8.59 22.15C8.61874 22.2503 8.67313 22.3413 8.7478 22.4142C8.82247 22.487 8.91484 22.5391 9.0158 22.5654C9.11676 22.5916 9.22282 22.5911 9.32351 22.5639C9.42421 22.5366 9.51606 22.4836 9.59 22.41C10.37 21.62 11.86 18.92 13.08 19.31C13.49 19.43 13.35 20.6 13.28 21.02C13.1591 21.3467 13.0589 21.6807 12.98 22.02C12.9744 22.1174 12.9992 22.2142 13.051 22.2968C13.1028 22.3795 13.1791 22.444 13.2692 22.4814C13.3593 22.5187 13.4588 22.5271 13.554 22.5054C13.6491 22.4836 13.7351 22.4328 13.8 22.36C14.29 21.84 15.43 19.94 16.32 20.78C16.98 21.4 17.38 22.22 17.76 21.78C18.14 21.34 17.64 21.18 17.31 20.78L16.92 20.27Z" clip-rule="evenodd"></path></g></svg>