<svg xmlns="http://www.w3.org/2000/svg" viewBox="0 0 140 140"><path d="m5.23 2.25.43-1.11A1 1 0 0 1 6.59.5h.82a1 1 0 0 1 .93.64l.43 1.11 1.46.84 1.18-.18a1 1 0 0 1 1 .49l.4.7a1 1 0 0 1-.08 1.13l-.73.93v1.68l.75.93a1 1 0 0 1 .08 1.13l-.4.7a1 1 0 0 1-1 .49l-1.18-.18-1.46.84-.43 1.11a1 1 0 0 1-.93.64h-.84a1 1 0 0 1-.93-.64l-.43-1.11-1.46-.84-1.18.18a1 1 0 0 1-1-.49l-.4-.7a1 1 0 0 1 .08-1.13L2 7.84V6.16l-.75-.93a1 1 0 0 1-.08-1.13l.4-.7a1 1 0 0 1 1-.49l1.18.18ZM5 7a2 2 0 1 0 2-2 2 2 0 0 0-2 2Z" style="fill:none;stroke:currentColor;stroke-linecap:round;stroke-linejoin:round" transform="scale(10)"/></svg><g transform="matrix(10,0,0,10,0,0)"><path d="M5.23,2.25l.43-1.11A1,1,0,0,1,6.59.5h.82a1,1,0,0,1,.93.64l.43,1.11,1.46.84,1.18-.18a1,1,0,0,1,1,.49l.4.7a1,1,0,0,1-.08,1.13L12,6.16V7.84l.75.93a1,1,0,0,1,.08,1.13l-.4.7a1,1,0,0,1-1,.49l-1.18-.18-1.46.84-.43,1.11a1,1,0,0,1-.93.64H6.59a1,1,0,0,1-.93-.64l-.43-1.11-1.46-.84-1.18.18a1,1,0,0,1-1-.49l-.4-.7a1,1,0,0,1,.08-1.13L2,7.84V6.16l-.75-.93A1,1,0,0,1,1.17,4.1l.4-.7a1,1,0,0,1,1-.49l1.18.18ZM5,7A2,2,0,1,0,7,5,2,2,0,0,0,5,7Z" style="fill: none;stroke: currentColor;stroke-linecap: round;stroke-linejoin: round"></path></g></svg>