<?xml version="1.0" encoding="UTF-8"?>
<svg version="1.1" viewBox="0 0 600 600" xmlns="http://www.w3.org/2000/svg" xmlns:xlink="http://www.w3.org/1999/xlink">
    <!--Generated by IJSVG (https://github.com/curthard89/IJSVG)-->
    <g fill="rgba(0, 0, 0, .5)">
        <path d="M39.529,578.713c-2.667,-1.951 -2.884,-3.874 -1.852,-16.354c3.722,-35.594 9.964,-70.832 16.907,-105.826c-23.929,-34.793 -44.163,-76.613 -50.657,-112.112c-3.927,-22.454 -2.267,-61.727 3.543,-83.903c8.258,-31.51 26.468,-66.104 49.891,-94.768c36.161,-37.683 73.078,-61.078 117.984,-75.565l13.049,-26.986c23.575,-48.759 33.469,-63.199 43.301,-63.199c4.812,0 6.705,1.298 12.364,8.453c6.439,8.146 31.969,58.126 38.02,74.436c2.6,7.007 3.861,8.271 10.738,10.765c45.229,16.389 72.229,33.336 99.996,62.771c12.181,12.911 31.427,40.466 39.666,56.791c22.992,45.548 28.352,98.726 15.253,151.417c-6.979,28.08 -21.625,58.367 -39.885,82.478c-6.392,8.437 -8.635,12.75 -7.983,15.339c1.687,6.725 5.975,38.515 8.381,62.141c2.595,25.457 1.862,30.118 -4.588,29.199c-17.263,-20.887 -21.34,-38.996 -38.158,-65.144c-78.133,50.273 -167.534,56.749 -248.183,17.743c-5.446,-2.245 -4.354,-3.285 -34.272,32.562c-17.591,21.078 -33.494,38.117 -37.777,40.479c-1.752,0.959 -3.788,0.707 -5.738,-0.707v-0.01v0Zm138.136,-170.69c34.68,-30.32 67.886,-50.6 94.314,-57.59c15.076,-3.987 23.518,-1.023 37.503,13.192c28.637,32.357 62.362,101.417 75.225,112.019c-0.013,-5.046 -11.045,-59.15 -17.586,-85.75c-13.376,-54.387 -22.105,-82.787 -46.6,-151.578c-31.924,-89.668 -42.34,-116.908 -61.51,-160.845c-17.524,-40.168 -26.307,-55.579 -31.678,-55.579c-7.893,0 -26.008,37.261 -61.015,125.477c-12.23,30.817 -42.885,115.872 -50.686,140.631c-11.121,35.298 -34.582,121.094 -38.225,139.79c-4.485,32.109 -13.356,66.333 -13.456,97.971c37.524,-36.833 73.387,-81.839 113.714,-117.738Zm51.961,-118.115l-32.271,24.396l6.29,-38.776l-35.087,-19.115l42.492,-8.933l19.418,-151.025l18.586,152.729l38.905,7.381l-32.709,18.455l7.688,41.532l-33.312,-26.644Zm127.105,180.81c-2.524,-6.579 -29.558,-51.705 -40.92,-69.135c-15.838,-24.292 -26.591,-36.109 -32.851,-36.109c-24.181,0 -77.131,38.594 -129.521,94.403c-13.17,14.027 -25.121,27.842 -24.771,28.91c68.668,37.437 158.909,32.934 228.063,-18.069v0Zm45.222,-49.248c32.888,-49.248 42.288,-119.724 23.384,-175.307c-15.185,-44.645 -48.063,-85.087 -89.777,-110.447c-18.177,-11.049 -35.563,-18.771 -37.521,-16.665c-0.701,0.759 5.484,19.938 13.74,42.636c39.365,108.176 58.594,169.222 73.989,234.946c7.586,32.37 7.725,32.845 9.528,32.84c0.726,-0.004 3.718,-3.603 6.657,-8.003v0Zm-235.71,-305.266c-1.251,-2.022 -22.99,7.239 -36.992,15.348c-46.693,27.042 -82.036,70.891 -99.817,123.837c-7.614,22.678 -9.761,59.949 -5.02,87.145c7.852,27.895 23.918,74.687 38.624,87.965c17.37,-90.755 63.175,-214.03 103.205,-314.295v-1.42109e-14Z" transform="translate(71.735, 10)"></path>
    </g>
</svg>