<svg width="24" height="24" viewBox="0 0 24 24" fill="none" xmlns="http://www.w3.org/2000/svg">
<path d="M17.7545 13.9999C18.9966 13.9999 20.0034 15.0068 20.0034 16.2488V16.8242C20.0034 17.7185 19.6838 18.5833 19.1023 19.2627C17.5329 21.0962 15.1457 22.0011 12.0004 22.0011C8.8545 22.0011 6.46849 21.0959 4.90219 19.2617C4.32242 18.5827 4.00391 17.7193 4.00391 16.8265V16.2488C4.00391 15.0068 5.01076 13.9999 6.25278 13.9999H17.7545ZM17.7545 15.4999H6.25278C5.83919 15.4999 5.50391 15.8352 5.50391 16.2488V16.8265C5.50391 17.3621 5.69502 17.8802 6.04287 18.2876C7.29618 19.7553 9.26206 20.5011 12.0004 20.5011C14.7387 20.5011 16.7063 19.7552 17.9627 18.2873C18.3117 17.8797 18.5034 17.3608 18.5034 16.8242V16.2488C18.5034 15.8352 18.1681 15.4999 17.7545 15.4999ZM12.0004 2.00462C14.7618 2.00462 17.0004 4.2432 17.0004 7.00462C17.0004 9.76605 14.7618 12.0046 12.0004 12.0046C9.23894 12.0046 7.00036 9.76605 7.00036 7.00462C7.00036 4.2432 9.23894 2.00462 12.0004 2.00462ZM12.0004 3.50462C10.0674 3.50462 8.50036 5.07163 8.50036 7.00462C8.50036 8.93762 10.0674 10.5046 12.0004 10.5046C13.9334 10.5046 15.5004 8.93762 15.5004 7.00462C15.5004 5.07163 13.9334 3.50462 12.0004 3.50462Z" fill="currentColor"/>
</svg>
