<svg width="24" height="24" viewBox="0 0 24 24" fill="none" xmlns="http://www.w3.org/2000/svg">
<path d="M17.5004 12C20.5379 12 23.0004 14.4624 23.0004 17.5C23.0004 20.5376 20.5379 23 17.5004 23C14.4628 23 12.0004 20.5376 12.0004 17.5C12.0004 14.4624 14.4628 12 17.5004 12ZM12.0226 13.9993C11.7259 14.4626 11.4864 14.966 11.314 15.4996L4.25391 15.4999C3.83969 15.4999 3.50391 15.8357 3.50391 16.2499V17.1572C3.50391 17.8129 3.7899 18.4359 4.28707 18.8634C5.54516 19.945 7.44117 20.5011 10.0004 20.5011C10.5992 20.5011 11.1618 20.4706 11.6885 20.4101C11.9374 20.9103 12.2512 21.374 12.6175 21.7905C11.8153 21.9313 10.9423 22.0011 10.0004 22.0011C7.11087 22.0011 4.87205 21.3445 3.30918 20.0008C2.48056 19.2884 2.00391 18.25 2.00391 17.1572V16.2499C2.00391 15.0073 3.01127 13.9999 4.25391 13.9999L12.0226 13.9993ZM16.7196 14.5886L16.6503 14.6464L14.1347 17.1627L14.0941 17.2134L14.0594 17.2708L14.0272 17.3488L14.0156 17.392L14.0044 17.4784L14.0082 17.5659L14.0271 17.651L14.0591 17.7287L14.0837 17.7711L14.1346 17.8371L16.6503 20.3536C16.8456 20.5488 17.1622 20.5488 17.3574 20.3536C17.531 20.18 17.5503 19.9106 17.4153 19.7157L17.3574 19.6464L15.7114 18H20.5004C20.7458 18 20.95 17.8231 20.9923 17.5899L21.0004 17.5C21.0004 17.2545 20.8235 17.0504 20.5902 17.0081L20.5004 17H15.7114L17.3574 15.3536C17.531 15.18 17.5503 14.9106 17.4153 14.7157L17.3574 14.6464C17.1839 14.4729 16.9145 14.4536 16.7196 14.5886ZM10.0004 2.00462C12.7618 2.00462 15.0004 4.2432 15.0004 7.00462C15.0004 9.76605 12.7618 12.0046 10.0004 12.0046C7.23894 12.0046 5.00036 9.76605 5.00036 7.00462C5.00036 4.2432 7.23894 2.00462 10.0004 2.00462ZM10.0004 3.50462C8.06737 3.50462 6.50036 5.07163 6.50036 7.00462C6.50036 8.93762 8.06737 10.5046 10.0004 10.5046C11.9334 10.5046 13.5004 8.93762 13.5004 7.00462C13.5004 5.07163 11.9334 3.50462 10.0004 3.50462Z" fill="currentColor"/>
</svg>
