<svg viewBox="0 0 640 512" xmlns="http://www.w3.org/2000/svg">
  <path d="M640 351.9999c0 70.692-57.308 128-128 128H144c-79.529 0-144-64.471-144-144 0-62.773 40.171-116.155 96.204-135.867l-.0000033-.0000658c-.135373-2.70889-.203393-5.42073-.203997-8.133 0-88.366 71.634-160 160-160 59.288 0 111.042 32.248 138.684 80.159 15.251-10.2049 33.587-16.1589 53.316-16.1589 53.019 0 96 42.981 96 96 0 12.184-2.275 23.836-6.415 34.56 58.432 11.854 102.415 63.51 102.415 125.44zm-235.314-91.314l-105.372-105.372c-6.248-6.248-16.379-6.248-22.627 0l-105.373 105.372c-10.08 10.08-2.941 27.314 11.313 27.314H248v112c0 8.837 7.164 16 16 16h48c8.836 0 16-7.163 16-16v-112h65.373c14.254 0 21.393-17.234 11.313-27.314z"/>
</svg>
