<?xml version="1.0" encoding="utf-8"?>
<!-- Generated by IcoMoon.io -->
<!DOCTYPE svg PUBLIC "-//W3C//DTD SVG 1.1//EN" "http://www.w3.org/Graphics/SVG/1.1/DTD/svg11.dtd">
<svg version="1.1" xmlns="http://www.w3.org/2000/svg" xmlns:xlink="http://www.w3.org/1999/xlink" width="28" height="28" viewBox="0 0 28 28">
<path fill="#444" d="M14 0c7.734 0 14 6.266 14 14 0 7.688-6.234 14-14 14-7.75 0-14-6.297-14-14 0-7.734 6.266-14 14-14zM23.672 21.109c1.453-2 2.328-4.453 2.328-7.109 0-6.609-5.391-12-12-12s-12 5.391-12 12c0 2.656 0.875 5.109 2.328 7.109 0.562-2.797 1.922-5.109 4.781-5.109 1.266 1.234 2.984 2 4.891 2s3.625-0.766 4.891-2c2.859 0 4.219 2.312 4.781 5.109zM20 11c0-3.313-2.688-6-6-6s-6 2.688-6 6 2.688 6 6 6 6-2.688 6-6z"></path>
</svg>
