<svg viewBox="0 0 24 24" xmlns="http://www.w3.org/2000/svg"><title>Iconly/Curved/3 User</title><g stroke="currentColor" stroke-width="1.5" fill="none" fill-rule="evenodd" stroke-linecap="round" stroke-linejoin="round"><path d="M11.973 20.368c-3.24 0-6.007-.49-6.007-2.452s2.75-3.67 6.006-3.67c3.24 0 6.007 1.692 6.007 3.653s-2.75 2.47-6.006 2.47ZM11.973 11.449a3.85 3.85 0 1 0-3.85-3.85 3.837 3.837 0 0 0 3.822 3.85h.027ZM18.362 10.392a2.901 2.901 0 0 0-.166-5.643M18.943 13.544c1.754 0 3.252 1.19 3.252 2.251 0 .625-.517 1.306-1.3 1.49M5.584 10.392a2.901 2.901 0 0 1 .165-5.643M5.002 13.544c-1.754 0-3.252 1.19-3.252 2.251 0 .625.517 1.306 1.302 1.49"/></g></svg>