<svg viewBox="0 0 24 24" xmlns="http://www.w3.org/2000/svg"><title>Iconly/Curved/Image</title><g stroke="currentColor" stroke-width="1.5" fill="none" fill-rule="evenodd" stroke-linecap="round" stroke-linejoin="round"><path d="M6.07 16.459s.813-1.637 1.995-1.637c1.182 0 1.786 1.375 3.096 1.375 1.309 0 2.778-3.448 4.262-3.448 1.482 0 2.548 2.391 2.548 2.391M10.14 9.105a1.558 1.558 0 1 1-3.117 0 1.558 1.558 0 0 1 3.116 0Z"/><path d="M2.75 12c0 6.937 2.313 9.25 9.25 9.25 6.937 0 9.25-2.313 9.25-9.25 0-6.937-2.313-9.25-9.25-9.25-6.937 0-9.25 2.313-9.25 9.25Z"/></g></svg>