<svg xmlns="http://www.w3.org/2000/svg" viewBox="0 0 600 600"><g transform="matrix(42.857142857142854,0,0,42.857142857142854,0,0)"><g><path d="M11.5,8.5h-9l-.76,3.8a1,1,0,0,0,.21.83,1,1,0,0,0,.77.37h8.56a1,1,0,0,0,.77-.37,1,1,0,0,0,.21-.83Z" fill="none" stroke="currentColor" stroke-linecap="round" stroke-linejoin="round"></path><path d="M11.5,5.5a1,1,0,0,1,1,1v2H1.5v-2a1,1,0,0,1,1-1H4a1,1,0,0,0,1-1v-2a2,2,0,0,1,4,0v2a1,1,0,0,0,1,1Z" fill="none" stroke="currentColor" stroke-linecap="round" stroke-linejoin="round"></path><line x1="8.5" y1="13.5" x2="8.5" y2="11" fill="none" stroke="currentColor" stroke-linecap="round" stroke-linejoin="round"></line></g></g></svg>
