<?xml version="1.0" encoding="UTF-8"?>
<svg version="1.1" viewBox="0 0 24 24" xmlns="http://www.w3.org/2000/svg" xmlns:xlink="http://www.w3.org/1999/xlink">
    <!--Generated by IJSVG (https://github.com/curthard89/IJSVG)-->
    <g fill="#000000">
        <path d="M11.5,0c-6.342,0 -11.5,5.158 -11.5,11.5c0,6.342 5.158,11.5 11.5,11.5c6.341,0 11.5,-5.158 11.5,-11.5c0,-6.342 -5.159,-11.5 -11.5,-11.5Zm-0.5,5c0.551,0 1,0.448 1,1c0,0.553 -0.449,1 -1,1c-0.553,0 -1,-0.447 -1,-1c0,-0.552 0.447,-1 1,-1Zm3.5,14h-6c-0.276,0 -0.5,-0.224 -0.5,-0.5c0,-0.276 0.224,-0.5 0.5,-0.5h2.499v-8h-1.499c-0.276,0 -0.5,-0.224 -0.5,-0.5c0,-0.276 0.224,-0.5 0.5,-0.5h2c0.275,0 0.5,0.224 0.499,0.5v8.5h2.501c0.275,0 0.5,0.224 0.5,0.5c0,0.276 -0.225,0.5 -0.5,0.5Z" transform="translate(0, 1.004)"></path>
    </g>
    <path fill="none" d="M0,0h24v24h-24Z"></path>
</svg>