<?xml version="1.0" encoding="UTF-8"?>
<svg version="1.1" viewBox="0 0 24 24" xmlns="http://www.w3.org/2000/svg" xmlns:xlink="http://www.w3.org/1999/xlink">
    <!--Generated by IJSVG (https://github.com/curthard89/IJSVG)-->
    <g fill="#000000">
        <path d="M17.753,5.092l-8.5,-5c-0.156,-0.092 -0.351,-0.092 -0.507,0l-8.5,5c-0.152,0.09 -0.246,0.253 -0.246,0.431c0,4.214 3,4.568 6.072,4.568v0c0.445,0 5.41,0 5.854,0c3.074,3.55271e-15 6.074,-0.354 6.074,-4.568c0,-0.178 -0.094,-0.341 -0.247,-0.431Z" transform="translate(3, 12.011)"></path>
        <path d="M17.753,5.092l-8.5,-5c-0.156,-0.092 -0.351,-0.092 -0.507,0l-8.5,5c-0.152,0.091 -0.246,0.254 -0.246,0.432v3c0,0.384 0.417,0.628 0.753,0.431l8.247,-4.851l8.246,4.851c0.333,0.195 0.754,-0.044 0.754,-0.431v-3c0,-0.178 -0.094,-0.341 -0.247,-0.432Z" transform="translate(3, 6.01)"></path>
        <path d="M17.753,5.092l-8.5,-5c-0.156,-0.092 -0.351,-0.092 -0.507,3.60822e-16l-8.5,5c-0.152,0.091 -0.246,0.254 -0.246,0.432v3c0,0.384 0.417,0.628 0.753,0.431l8.247,-4.851l8.246,4.851c0.333,0.195 0.754,-0.044 0.754,-0.431v-3c0,-0.178 -0.094,-0.341 -0.247,-0.432Z" transform="translate(3, 0.01)"></path>
    </g>
    <path fill="none" d="M0,0h24v24h-24Z"></path>
</svg>